<svg width="1059" height="565" viewBox="0 0 1059 565" fill="none" xmlns="http://www.w3.org/2000/svg">
<path d="M253.727 268.453C257.517 283.846 268.831 290.284 282.039 295.941C310.974 308.325 326.237 341.253 318.7 373.631C317.369 379.331 318.931 380.46 323.879 380.069C325.529 379.939 327.192 380.069 328.856 380.069C436.913 380.069 544.985 380.011 653.042 380.214C658.989 380.214 660.739 378.449 659.784 372.98C659.148 369.305 658.945 365.544 658.063 361.941C653.636 343.871 645.071 336.681 626.35 335.205C622.227 334.873 618.06 334.713 613.923 334.713C530.952 334.685 447.995 334.699 365.025 334.699H356.388C386.364 291.731 415.675 249.746 445.536 206.937H247.665C246.84 204.362 248.663 203.132 249.574 201.7C258.197 188.289 267.066 175.022 275.529 161.495C277.829 157.82 280.405 156.721 284.571 156.749C345.957 157.053 407.356 157.097 468.742 157.574C474.876 157.618 475.874 155.578 475.701 150.254C474.76 120.943 451.207 101.064 420.088 103.133C410.062 103.799 401.02 106.547 392.817 112.277C389.113 114.866 385.293 117.268 381.055 120.074C374.457 97.7512 367.962 75.8041 361.321 53.3217C367.007 54.508 372.186 55.5786 377.351 56.6781C389.258 59.2244 400.86 55.8535 412.579 54.8697C426.338 53.7123 439.937 54.6816 453.421 57.2279C490.472 64.2302 518.307 101.932 523.038 134.209C523.978 140.604 524.601 146.998 524.195 153.407C523.978 156.807 525.194 157.56 528.333 157.56C561.724 157.531 595.115 157.516 628.506 157.777C633.077 157.806 633.41 155.867 633.396 152.25C633.294 127.366 633.468 102.468 633.237 77.5836C633.193 73.0264 634.394 71.1166 639.038 70.2341C651.234 67.9338 663.416 65.402 675.424 62.2481C681.24 60.7146 681.92 62.5664 681.891 67.6734C681.703 95.6679 681.891 123.677 681.702 151.671C681.674 156.084 682.411 157.806 687.359 157.632C698.962 157.212 710.594 157.285 722.197 157.603C726.624 157.719 727.666 156.359 727.637 152.062C727.434 127.178 727.68 102.28 727.405 77.3955C727.347 72.5923 728.997 71.0877 733.424 70.2341C745.417 67.9483 757.382 65.402 769.216 62.4217C774.555 61.0762 776.305 61.5682 776.233 67.7313C775.9 95.5232 776.233 123.315 775.958 151.107C775.9 156.287 777.202 157.791 782.41 157.603C793.594 157.198 804.82 157.169 816.004 157.603C821.154 157.806 822.008 155.968 821.964 151.353C821.747 126.672 821.993 101.99 821.747 77.3087C821.704 72.9685 822.861 71.1745 827.158 70.3209C839.947 67.7747 852.664 64.8667 865.367 61.9587C868.853 61.163 870.517 61.2788 870.488 65.7637C870.315 108.284 870.329 150.803 870.459 193.323C870.474 198.763 867.927 201.772 863.211 203.595C857.699 205.722 851.984 206.199 846.125 206.199C769.404 206.199 692.669 206.214 615.948 206.257C581.313 206.272 546.678 206.329 512.028 206.329C508.86 206.329 506.183 206.358 503.984 209.541C485.929 235.829 467.686 261.986 449.312 288.461C451.554 290.067 453.869 289.315 455.953 289.329C509.265 289.387 562.563 289.401 615.876 289.344C627.305 289.344 638.72 289.792 649.889 292.266C678.216 298.545 694.622 316.629 700.828 344.537C703.085 354.664 704.821 364.878 704.908 375.295C704.937 378.506 705.675 380.098 709.437 380.083C751.117 379.953 792.798 379.997 834.479 379.968C834.797 379.968 835.13 379.664 836.07 379.201C823.657 370.564 814.673 359.062 805.732 347.445C802.94 343.814 802.882 341.007 805.124 336.956C812.778 323.053 819.939 308.889 827.607 294.234C833.003 301.626 837.821 308.527 842.971 315.153C847.036 320.391 851.391 325.411 855.847 330.33C860.375 335.336 864.094 341.311 873.049 337.694C882.395 333.918 890.526 329.52 892.348 318.756C893.694 310.799 894.895 302.712 894.953 294.682C895.3 242.831 895.329 190.979 895.43 139.128C895.473 115.069 895.488 91.0094 895.387 66.95C895.387 63.6949 895.777 61.7128 899.611 60.9461C911.995 58.4866 924.322 55.7088 936.604 52.8443C940.279 51.9907 941.06 53.0179 941.06 56.6347C940.93 132.343 940.959 208.051 940.8 283.759C940.785 292.237 939.715 300.686 937.545 308.976C932.062 329.939 917.189 341.933 895.531 343.003C885.91 343.481 876.579 341.6 867.117 340.11C866.756 342.54 868.636 343.148 869.707 344.117C887.618 360.277 907.076 373.689 931.382 378.304C938.123 379.577 944.938 380.069 951.795 380.054C984.564 380.026 1017.33 380.054 1050.12 380.054C1052.34 380.054 1054.57 380.054 1056.58 380.054C1057.6 382.239 1056.22 383.281 1055.53 384.438C1048.22 396.707 1040.74 408.888 1033.55 421.243C1031.89 424.093 1030.18 425.728 1026.77 425.207C1025.35 424.99 1023.87 425.164 1022.41 425.164C792.393 425.164 562.361 425.164 332.343 425.164C243.99 425.164 155.623 425.222 67.2702 425.135C33.1993 425.106 5.98607 400.96 0.719917 366.527C-4.11221 334.887 16.0409 302.437 46.7264 292.57C53.0776 290.53 59.6024 289.488 66.2864 289.445C86.8157 289.3 107.359 289.373 127.874 288.808C133.661 288.649 134.66 290.515 134.616 295.738C134.428 321.866 134.746 348.009 134.544 374.137C134.5 378.912 135.846 379.997 140.432 379.924C155.565 379.678 170.712 379.78 185.845 380.054C190.142 380.141 189.26 378.449 188.609 375.627C181.577 345.405 191.705 317.642 215.663 301.077C219.945 298.125 224.43 295.42 229.392 293.944C242.268 290.139 250.515 282.124 253.741 268.438L253.727 268.453ZM90.0998 357.413C90.1143 344.71 80.4934 334.902 67.8633 334.757C55.4358 334.612 45.2362 344.566 45.0916 357.008C44.9324 369.783 55.0596 380.04 67.7765 379.997C80.3053 379.953 90.0853 370.057 90.1143 357.413H90.0998ZM253.683 334.742C241.14 334.757 231.215 344.667 231.143 357.225C231.071 369.739 240.937 379.823 253.423 379.997C266.038 380.17 276.484 369.783 276.368 357.181C276.252 344.768 266.096 334.728 253.683 334.742Z" fill="#202857"/>
<path d="M163.175 263.576C131.868 263.576 100.56 263.605 69.2669 263.518C67.1836 263.518 63.7259 264.994 63.9574 260.596C64.1599 256.66 67.2849 258.527 69.1801 258.223C72.2327 257.731 75.3867 257.745 78.4248 257.167C86.6423 255.604 90.8379 251.409 91.8651 243.133C92.5016 238.012 92.4438 232.789 92.4438 227.61C92.4727 182.616 92.4438 137.608 92.4148 92.614C92.4148 90.9502 92.2846 89.2865 92.357 87.6372C93.1093 71.2456 83.4884 66.862 70.9596 66.6449C69.5129 66.616 68.0517 66.6015 66.6049 66.616C64.9412 66.6304 63.8706 66.182 63.8995 64.171C63.9284 62.2613 64.3046 60.9013 66.576 60.9158C68.0227 60.9303 69.4839 60.9014 70.9307 60.9014C132.302 60.9014 193.672 60.9014 255.043 60.9014C256.49 60.9014 257.951 60.9303 259.398 60.9303C261.713 60.9303 261.93 62.4349 261.973 64.2723C262.002 66.3122 260.859 66.6015 259.21 66.6305C255.072 66.6883 250.949 66.5147 246.855 67.5998C238.637 69.7844 234.803 73.8787 234.066 82.2264C233.588 87.5938 233.299 92.9902 233.284 98.372C233.226 141.094 233.241 183.802 233.284 226.525C233.284 231.082 233.443 235.654 233.834 240.182C234.789 251.524 238.869 255.894 250.124 257.63C253.177 258.107 256.317 258.093 259.413 258.165C261.235 258.208 261.988 258.932 261.973 260.769C261.959 262.462 261.568 263.619 259.601 263.561C258.559 263.532 257.532 263.576 256.49 263.576C225.385 263.576 194.295 263.576 163.19 263.576H163.175ZM184.471 162.521C184.471 162.521 184.384 162.521 184.341 162.521C184.341 136.841 184.515 111.147 184.269 85.4671C184.153 73.3867 177.946 67.4551 165.837 66.7317C161.902 66.5003 157.996 66.6739 154.133 67.7589C146.436 69.9435 142.675 74.2259 142.009 82.2698C141.59 87.4202 141.286 92.5995 141.271 97.7789C141.214 135.278 141.214 172.764 141.271 210.263C141.286 221.027 141.054 231.791 141.893 242.555C142.429 249.47 145.901 253.81 151.992 256.053C159.631 258.859 167.457 258.599 175.067 255.763C179.654 254.056 182.272 250.468 183.444 245.723C184.442 241.643 184.471 237.505 184.471 233.368C184.5 209.757 184.471 186.132 184.471 162.521Z" fill="#202857"/>
<path d="M1058.3 336.913C1057.13 343.249 1053.04 347.705 1048.21 351.279C1033.02 362.534 1015.96 366.079 997.643 361.608C980.86 357.514 972.194 346.418 971.138 329.158C970.993 326.887 971.022 324.601 971.022 322.315C971.022 220.131 971.066 117.933 970.863 15.7497C970.863 10.4113 972.498 8.7909 977.417 7.87945C988.803 5.78167 1000.15 3.30774 1011.34 0.399786C1016.05 -0.81548 1016.45 0.775949 1016.44 4.68216C1016.32 29.9713 1016.39 55.2459 1016.39 80.535C1016.39 161.582 1016.36 242.628 1016.42 323.675C1016.42 335.987 1021.99 340.963 1034.32 340.081C1042.17 339.517 1049.97 338.475 1057.52 336.117C1057.77 336.377 1058.03 336.638 1058.29 336.884L1058.3 336.913Z" fill="#202857"/>
<path d="M80.4358 497.834C88.2048 501.132 93.4565 506.109 94.5271 514.312C96.0317 525.814 89.7094 535.232 78.2367 537.938C64.565 541.164 50.5895 539.095 36.7586 539.572C33.9519 539.674 34.0387 537.692 34.0387 535.767C34.0387 511.954 34.0676 488.126 34.0098 464.313C34.0098 461.752 34.8344 460.406 37.5254 460.479C49.0993 460.797 60.7601 459.394 72.2617 461.303C88.581 464.009 95.9594 480.314 86.4398 492.177C84.9207 494.072 82.9097 495.548 80.4503 497.848L80.4358 497.834ZM51.4864 514.544C51.4864 518.059 51.5009 520.548 51.4864 523.036C51.472 524.729 52.0507 525.901 53.9314 525.843C59.2989 525.698 64.7242 526.595 69.9903 524.83C74.2293 523.412 76.327 520.519 76.3705 515.976C76.4283 508.699 72.117 505.227 62.1489 505.212C49.2006 505.198 51.7613 504.026 51.5009 514.544H51.4864ZM51.4864 483.077C51.8626 487.128 48.998 493.19 58.2427 492.481C68.9197 491.656 72.7102 489.848 72.58 482.99C72.4642 476.538 68.341 474.57 57.7074 473.905C49.895 473.427 51.472 478.259 51.472 483.091L51.4864 483.077Z" fill="#EE5A50"/>
<path d="M640.47 488.371C650.467 481.268 660.522 479.734 670.36 488.545C672.631 490.57 673.63 488.675 675.004 487.691C679.33 484.566 684.234 482.975 689.472 482.584C702.839 481.586 712.127 490.18 712.301 503.736C712.431 513.892 712.113 524.048 712.431 534.19C712.576 538.617 711.158 539.76 706.847 539.702C695.75 539.543 695.765 539.745 695.736 528.634C695.721 521.589 695.837 514.543 695.504 507.512C695.244 502.144 693.407 497.659 686.853 497.5C681.051 497.37 676.35 501.58 676.06 508.033C675.67 516.51 675.597 525.032 675.959 533.51C676.176 538.414 674.715 539.875 669.781 539.731C659.148 539.413 659.133 539.687 659.133 528.764C659.133 521.921 659.206 515.093 659.119 508.25C659.032 501.03 656.312 497.631 650.742 497.515C644.999 497.385 640.181 501.71 639.92 508.062C639.573 516.756 639.559 525.466 639.863 534.161C640.022 538.544 638.647 539.774 634.293 539.716C622.531 539.586 622.516 539.789 622.516 528.128C622.516 515.078 622.675 502.014 622.429 488.979C622.357 484.899 623.543 483.684 627.638 483.713C637.852 483.785 637.852 483.583 640.485 488.4L640.47 488.371Z" fill="#EE5A50"/>
<path d="M444.726 500.278C444.726 488.877 444.842 477.491 444.653 466.091C444.596 462.228 445.493 460.651 449.804 460.637C462.391 460.579 462.391 460.362 462.391 472.934C462.391 477.492 462.506 482.049 462.362 486.606C462.26 489.832 463.577 490.961 466.774 490.903C475.267 490.758 483.759 490.715 492.251 490.917C495.752 491.004 496.997 489.919 496.866 486.346C496.635 479.517 496.939 472.674 496.736 465.845C496.635 462.344 497.286 460.724 501.409 460.651C514.661 460.42 514.661 460.232 514.661 473.527C514.661 493.825 514.56 514.137 514.748 534.435C514.792 538.501 513.591 539.701 509.511 539.716C496.794 539.745 496.794 539.904 496.794 527.202C496.794 522.022 496.577 516.828 496.866 511.664C497.069 508.018 495.68 507.092 492.237 507.179C483.962 507.396 475.657 507.511 467.382 507.135C462.955 506.933 462.217 508.785 462.318 512.561C462.535 520.011 462.246 527.477 462.434 534.927C462.521 538.284 461.638 539.586 457.964 539.687C444.711 540.034 444.711 540.193 444.711 526.999C444.711 518.087 444.711 509.175 444.711 500.278H444.726Z" fill="#EE5A50"/>
<path d="M961.836 502.233C961.561 510.132 960.91 517.93 957.482 525.251C952.519 535.87 944.244 541.44 932.525 541.541C921.024 541.642 912.329 536.333 907.742 525.989C900.899 510.552 900.697 494.565 907.337 478.94C912.025 467.902 922.051 461.985 933.552 462.679C945.691 463.417 954.183 469.363 958.509 480.893C961.084 487.78 961.778 494.97 961.851 502.247L961.836 502.233ZM920.141 501.582C920.141 507.6 920.604 513.561 923.136 519.116C924.944 523.081 927.722 525.988 932.569 525.887C937.097 525.786 939.846 523.138 941.408 519.261C945.994 507.846 945.893 496.33 941.437 484.915C939.904 480.995 936.865 478.622 932.424 478.521C927.91 478.42 925.103 480.937 923.252 484.698C920.647 490.022 920.156 495.752 920.156 501.582H920.141Z" fill="#EE5A50"/>
<path d="M1038.32 532.309C1038.24 548.614 1024.93 561.823 1008.64 561.765C992.362 561.707 979.167 548.382 979.167 532.049C979.167 515.368 992.55 502.144 1009.2 502.347C1025.49 502.535 1038.4 515.831 1038.31 532.309H1038.32Z" fill="#202857"/>
<path d="M1008.77 497.27C992.29 497.27 979.269 484.321 979.153 467.829C979.037 451.249 992.608 437.693 1009.06 437.939C1025.45 438.185 1038.37 451.379 1038.31 467.814C1038.25 484.292 1025.23 497.27 1008.77 497.27Z" fill="#202857"/>
<path d="M750.38 227.134C766.135 227.091 778.302 239.171 778.36 254.955C778.417 270.768 766.366 283.123 750.77 283.21C734.957 283.297 722.211 270.739 722.211 255.042C722.211 239.735 734.87 227.177 750.365 227.134H750.38Z" fill="#EE5A50"/>
<path d="M574.499 16.6895C590.21 16.6895 602.551 28.8855 602.609 44.4669C602.652 60.005 590.283 72.6496 574.86 72.7942C559.047 72.9389 546.475 60.4101 546.519 44.5248C546.562 28.8132 558.729 16.7039 574.499 16.7039V16.6895Z" fill="#EE5A50"/>
<path d="M802.78 254.78C802.896 239.126 815.237 227.017 830.963 227.133C846.559 227.248 858.914 239.676 858.9 255.214C858.885 270.926 846.139 283.353 830.225 283.208C814.745 283.064 802.679 270.564 802.78 254.78Z" fill="#EE5A50"/>
<path d="M751.233 345.795C735.333 345.853 723.195 333.888 723.152 318.118C723.094 302.291 735.738 289.516 751.334 289.646C766.699 289.762 779.271 302.494 779.271 317.901C779.271 333.425 766.901 345.737 751.233 345.795Z" fill="#EE5A50"/>
<path d="M575.15 80.9249C590.529 80.8815 603.289 93.4682 603.434 108.847C603.578 124.052 590.876 137.015 575.555 137.276C560.104 137.536 546.895 124.457 546.967 108.948C547.025 93.6273 559.756 80.9683 575.15 80.9249Z" fill="#EE5A50"/>
<path d="M614.834 539.065C613.619 539.398 613.431 539.456 613.228 539.499C598.674 543.203 590.674 535.839 585.35 523.354C584.38 521.068 583.541 516.8 580.069 517.683C576.525 518.579 575.888 522.355 576.235 525.943C576.394 527.578 576.279 529.256 576.264 530.906C576.105 540.932 577.566 539.485 567.83 539.572C559.033 539.659 559.033 539.586 559.033 530.732C559.033 509.407 559.149 488.082 558.947 466.757C558.903 462.229 559.641 460.16 564.907 460.319C576.264 460.637 576.279 460.319 576.279 471.951C576.279 481.036 576.279 490.108 576.279 499.815C581.516 497.833 583.961 493.522 586.883 490.151C591.18 485.189 595.911 482.787 602.479 483.727C605.228 484.118 608.078 483.785 612.563 483.785C606.848 489.717 602.711 494.838 597.734 498.976C592.8 503.07 593.162 506.268 596.634 511.129C602.971 519.997 608.599 529.372 614.849 539.08L614.834 539.065Z" fill="#EE5A50"/>
<path d="M833.017 539.588C826.188 539.588 819.331 539.371 812.517 539.675C808.61 539.848 807.945 538.373 807.612 534.727C806.498 522.343 811.62 513.084 820.908 505.589C825.899 501.567 830.992 497.632 835.838 493.437C839.643 490.138 842.696 486.073 838.92 481.096C835.375 476.423 830.312 476.872 825.349 478.796C824.394 479.157 823.252 479.649 822.76 480.445C818.651 486.912 814.831 483.744 810.216 480.778C805.457 477.725 805.948 475.425 809.406 471.851C818.723 462.231 836.46 459.626 847.933 466.455C857.597 472.213 860.838 484.076 855.5 494.044C851.868 500.83 845.994 505.43 840.092 510.002C836.33 512.91 832.409 515.659 829.342 519.362C828.416 520.476 827.36 521.735 827.939 523.254C828.619 525.034 830.413 524.383 831.758 524.397C838.804 524.455 845.85 524.657 852.881 524.339C857.134 524.151 859.087 525.395 858.509 529.851C858.292 531.486 858.306 533.179 858.509 534.814C859.001 538.734 857.279 539.79 853.546 539.646C846.718 539.371 839.875 539.573 833.046 539.573L833.017 539.588Z" fill="#EE5A50"/>
<path d="M191.329 517.872C194.888 507.991 198.563 498.544 201.63 488.908C202.946 484.756 204.972 483.309 209.182 483.7C213.045 484.062 216.951 483.772 221.754 483.772C218.296 492.12 215.157 499.715 212.003 507.296C205.825 522.198 200.038 537.287 193.325 551.957C187.755 564.11 176.124 567.915 164.159 562.764C160.774 561.303 159.023 560.059 161.714 556.095C164.391 552.174 165.505 548.239 172.261 550.568C178.655 552.767 184.457 542.365 181.173 535.132C174.344 520.057 167.342 505.054 160.426 490.022C158.517 485.885 159.795 483.806 164.26 483.787C172.815 483.748 178.617 487.654 181.665 495.505C184.37 502.435 187.162 509.351 189.94 516.266C190.085 516.628 190.461 516.888 191.329 517.886V517.872Z" fill="#EE5A50"/>
<path d="M79.0174 221.592C79.0174 236.132 67.646 247.793 53.2509 248.024C38.8413 248.241 26.5729 236.132 26.544 221.665C26.5151 207.212 38.74 195.088 53.1786 195.233C67.5013 195.377 79.003 207.125 79.003 221.592H79.0174Z" fill="#EE5A50"/>
<path d="M153.51 519.607C153.51 524.989 153.38 530.385 153.554 535.767C153.655 538.777 152.31 540.397 149.604 539.5C145.438 538.126 139.622 543.305 136.844 536.216C136.323 534.885 135.137 536.389 134.442 536.896C129.697 540.397 124.315 541.352 118.572 541.048C110.224 540.614 103.959 536.144 102.18 529.228C100.053 520.982 102.918 512.938 109.761 508.511C116.3 504.286 123.65 503.577 131.231 503.794C133.155 503.852 136.352 505.545 136.728 502.116C137.032 499.252 134.703 496.995 131.954 496.286C126.21 494.796 120.192 494.68 114.998 497.631C107.851 501.696 107.678 494.752 105.522 491.873C102.498 487.837 107.215 487.113 109.356 486.072C117.819 481.948 126.905 481.153 136.034 482.831C146.19 484.697 152.44 492.076 153.221 502.839C153.626 508.395 153.293 514.023 153.293 519.607C153.366 519.607 153.438 519.607 153.496 519.607H153.51ZM130.898 514.703C122.073 514.674 118.441 516.829 118.268 522.153C118.094 527.376 121.393 528.953 125.762 529.141C132.301 529.431 136.945 524.888 137.177 518.797C137.379 513.444 133.69 514.963 130.883 514.703H130.898Z" fill="#EE5A50"/>
<path d="M348.907 519.607C348.907 524.989 348.777 530.385 348.951 535.767C349.052 538.777 347.707 540.397 345.001 539.5C340.835 538.126 335.019 543.305 332.241 536.216C331.72 534.885 330.534 536.389 329.839 536.896C325.094 540.397 319.712 541.352 313.969 541.048C305.621 540.614 299.356 536.144 297.577 529.228C295.45 520.982 298.315 512.938 305.158 508.511C311.697 504.286 319.047 503.577 326.628 503.794C328.552 503.852 331.749 505.545 332.125 502.116C332.429 499.252 330.1 496.995 327.351 496.286C321.607 494.796 315.589 494.68 310.395 497.631C303.248 501.696 303.075 494.752 300.919 491.873C297.895 487.837 302.612 487.113 304.753 486.072C313.216 481.948 322.302 481.153 331.431 482.831C341.587 484.697 347.837 492.076 348.618 502.839C349.023 508.395 348.69 514.023 348.69 519.607C348.763 519.607 348.835 519.607 348.893 519.607H348.907ZM326.44 514.703C317.426 514.674 313.795 516.873 313.665 522.226C313.535 527.463 316.891 528.968 321.231 529.141C327.785 529.402 332.386 524.83 332.574 518.725C332.747 513.314 328.942 515.05 326.425 514.703H326.44Z" fill="#EE5A50"/>
<path d="M774.555 519.289C774.555 524.671 774.395 530.068 774.612 535.45C774.743 538.763 773.368 540.441 770.33 539.486C766.192 538.198 760.203 543.392 757.714 535.927C757.483 535.233 755.993 536.491 755.226 537.055C750.64 540.383 745.461 541.309 739.919 541.048C731.514 540.672 725.177 536.347 723.282 529.518C720.88 520.866 724.063 512.49 731.601 508.019C738.082 504.171 745.229 503.505 752.593 503.824C754.401 503.896 757.266 505.343 757.787 502.391C758.264 499.758 756.268 497.516 753.852 496.648C747.963 494.55 741.713 494.536 736.346 497.545C728.895 501.726 728.403 494.753 726.465 491.584C723.745 487.143 729.025 486.767 731.268 485.71C739.355 481.862 748.079 481.24 756.788 482.745C766.988 484.51 773.383 491.816 774.251 502.522C774.699 508.077 774.323 513.691 774.323 519.289H774.555ZM751.653 514.703C743.044 514.732 739.485 516.931 739.341 522.125C739.182 527.753 742.842 529.142 747.414 529.142C753.75 529.142 758.018 524.729 758.235 518.841C758.452 512.909 754.141 515.267 751.653 514.718V514.703Z" fill="#EE5A50"/>
<path d="M79.0181 161.972C78.9024 176.685 67.6612 187.782 52.8899 187.738C38.1621 187.709 26.2698 175.788 26.5447 161.306C26.8196 146.969 38.625 135.323 52.9189 135.279C67.4297 135.236 79.1194 147.186 79.0037 161.957L79.0181 161.972Z" fill="#EE5A50"/>
<path d="M233.487 511.072C233.487 508.381 233.284 505.675 233.53 502.999C233.892 498.991 232.966 496.706 228.264 497.226C222.737 497.834 224.488 493.436 224.575 490.832C224.661 488.097 222.419 483.381 228.365 483.829C232.532 484.148 233.559 482.47 233.573 478.505C233.617 466.526 233.776 466.657 246.203 467.105C249.401 467.221 250.833 468.118 250.413 471.373C250.312 472.183 250.399 473.022 250.413 473.847C250.442 483.497 250.457 483.887 260.063 483.613C266.4 483.439 265.011 487.374 265.156 490.89C265.315 494.579 265.575 497.588 259.991 497.4C250.428 497.067 250.413 497.458 250.413 507.18C250.413 511.115 250.298 515.05 250.457 518.971C250.775 526.595 254.464 529.547 261.365 526.711C268.729 523.702 268.599 530.501 270.668 533.467C273.171 537.055 268.483 537.663 266.559 538.632C249.01 547.588 233.689 538.184 233.501 518.494C233.472 516.005 233.501 513.531 233.501 511.043L233.487 511.072Z" fill="#EE5A50"/>
<path d="M361.147 499.729C361.147 488.343 361.35 476.957 361.046 465.571C360.93 461.361 362.377 460.363 366.327 460.363C378.392 460.32 378.392 460.16 378.392 472.501C378.392 492.784 378.277 513.068 378.479 533.351C378.523 537.952 377.698 539.89 372.475 539.731C361.162 539.37 361.147 539.688 361.147 528.302C361.147 518.782 361.147 509.263 361.147 499.743V499.729Z" fill="#EE5A50"/>
<path d="M546.692 511.519C546.692 519.361 546.605 527.217 546.736 535.058C546.779 537.922 545.853 538.935 542.873 539.138C529.49 540.078 529.505 540.179 529.505 527.101C529.505 514.297 529.649 501.493 529.418 488.69C529.346 484.624 530.59 483.452 534.684 483.467C546.692 483.51 546.692 483.322 546.692 495.403C546.692 500.77 546.692 506.137 546.692 511.505V511.519Z" fill="#EE5A50"/>
<path d="M410.916 514.703C407.4 514.703 403.899 514.746 400.383 514.703C390.979 514.544 392.31 516.034 392.31 506.457C392.31 497.183 390.979 498.427 400.571 498.34C408.63 498.268 416.688 498.456 424.732 498.268C428.204 498.196 429.853 498.832 429.911 502.926C430.085 514.717 430.287 514.717 418.337 514.717H410.901L410.916 514.703Z" fill="#EE5A50"/>
<path d="M883.35 520.721C889.638 520.721 892.782 524.121 892.782 530.92C892.782 536.707 889.156 539.601 881.903 539.601C873.7 539.601 873.642 539.601 873.729 528.851C873.815 519.375 872.383 520.894 883.35 520.735V520.721Z" fill="#EE5A50"/>
<path d="M537.853 476.133C535.35 475.54 530.735 477.739 529.708 475.019C528.29 471.229 529.187 466.541 529.23 462.244C529.23 461.044 530.301 460.552 531.4 460.537C535.914 460.508 540.442 460.494 544.956 460.537C546.721 460.566 547.474 461.666 547.474 463.373C547.474 464.602 547.532 465.832 547.503 467.076C547.343 477.768 548.776 475.916 537.853 476.133Z" fill="#EE5A50"/>
<path d="M1057.54 336.145C1058.03 335.711 1058.55 335.465 1059 336.145C1059.04 336.218 1058.55 336.652 1058.3 336.912C1058.04 336.666 1057.78 336.406 1057.54 336.145Z" fill="#202857"/>
</svg>
