<svg width="252" height="314" viewBox="0 0 252 314" fill="none" xmlns="http://www.w3.org/2000/svg">
<path d="M181.961 130.63C181.961 64.5813 126.265 11.5407 59.2809 15.9063C3.61772 19.5295 -42.12 63.7421 -47.4539 119.268C-53.5544 182.863 -7.80057 237.066 52.4702 244.667V308.618C52.4702 312.362 56.2064 314.985 59.7086 313.645C86.9753 303.252 181.961 257.95 181.961 131.283H181.945C181.945 131.066 181.961 130.848 181.961 130.63Z" fill="#FFF2F2"/>
<path d="M251.512 114.975C251.512 48.9265 195.816 -4.11409 128.832 0.251489C73.1686 3.87468 27.4308 48.0873 22.0969 103.613C15.9964 167.209 61.7502 221.411 122.021 229.013V292.963C122.021 296.707 125.757 299.33 129.259 297.99C156.526 287.597 251.512 242.295 251.512 115.629H251.496C251.496 115.411 251.512 115.193 251.512 114.975Z" fill="#C7CAEA"/>
<path d="M217.289 28.6318C217.289 23.4512 212.924 19.2954 207.67 19.6343C203.305 19.9168 199.722 23.3866 199.302 27.7361C198.826 32.723 202.409 36.9676 207.138 37.5647V42.5758C207.138 42.8663 207.428 43.0761 207.703 42.9712C209.841 42.1562 217.289 38.6057 217.289 28.6721C217.289 28.656 217.289 28.6399 217.289 28.6237V28.6318Z" fill="#EE5A50"/>
<path d="M238.963 28.6318C238.963 23.4512 234.597 19.2954 229.344 19.6343C224.979 19.9168 221.396 23.3866 220.976 27.7361C220.5 32.723 224.083 36.9676 228.812 37.5647V42.5758C228.812 42.8663 229.102 43.0761 229.376 42.9712C231.515 42.1562 238.963 38.6057 238.963 28.6721C238.963 28.656 238.963 28.6399 238.963 28.6237V28.6318Z" fill="#202857"/>
</svg>
