<svg width="63" height="64" viewBox="0 0 63 64" fill="none" xmlns="http://www.w3.org/2000/svg">
<path d="M31.5652 20.7777C29.7668 18.8886 24.553 14.402 15.8052 12.829C11.3735 12.032 9.15761 11.6336 7.27044 13.1608C5.3833 14.6881 5.3833 17.1681 5.3833 22.1281V39.9537C5.3833 44.489 5.3833 46.7566 6.59448 48.1722C7.80565 49.5881 10.4721 50.0675 15.8052 51.0266C20.5592 51.8814 24.2695 53.2437 26.9551 54.6125C29.5974 55.959 30.9185 56.6324 31.5652 56.6324C32.2119 56.6324 33.533 55.959 36.1753 54.6125C38.8611 53.2437 42.5713 51.8814 47.3251 51.0266C52.6584 50.0675 55.3248 49.5881 56.5359 48.1722C57.7471 46.7566 57.7471 44.489 57.7471 39.9537V22.1281C57.7471 17.1681 57.7471 14.6881 55.8599 13.1608C53.9727 11.6336 49.8925 12.829 47.2743 14.7413" stroke="#FEF3F2" stroke-width="3.92729" stroke-linecap="round" stroke-linejoin="round"/>
<path d="M43.6424 42.4538C36.7484 46.3368 32.8151 54.3831 31.5654 56.6323V21.2868C32.6507 19.3335 35.7598 13.7371 41.0739 9.93346C43.3127 8.3311 44.432 7.52991 45.8534 8.26044C47.2746 8.99099 47.2746 10.6036 47.2746 13.8288V36.9734C47.2746 38.7155 47.2746 39.5866 46.9169 40.1987C46.559 40.8109 45.5869 41.3586 43.6424 42.4538Z" stroke="#FEF3F2" stroke-width="3.92729" stroke-linecap="round" stroke-linejoin="round"/>
</svg>
