<svg width="63" height="64" viewBox="0 0 63 64" fill="none" xmlns="http://www.w3.org/2000/svg">
<path d="M31.5652 20.7776C29.7668 18.8885 24.553 14.4019 15.8052 12.8289C11.3735 12.0319 9.15761 11.6335 7.27044 13.1607C5.3833 14.688 5.3833 17.168 5.3833 22.128V39.9536C5.3833 44.4889 5.3833 46.7565 6.59448 48.1721C7.80565 49.588 10.4721 50.0674 15.8052 51.0265C20.5592 51.8813 24.2695 53.2436 26.9551 54.6123C29.5974 55.9589 30.9185 56.6323 31.5652 56.6323C32.2119 56.6323 33.533 55.9589 36.1753 54.6123C38.8611 53.2436 42.5713 51.8813 47.3251 51.0265C52.6584 50.0674 55.3248 49.588 56.5359 48.1721C57.7471 46.7565 57.7471 44.4889 57.7471 39.9536V22.128C57.7471 17.168 57.7471 14.688 55.8599 13.1607C53.9727 11.6335 49.8925 12.8289 47.2743 14.7412" stroke="#EC5C52" stroke-width="3.92729" stroke-linecap="round" stroke-linejoin="round"/>
<path d="M43.6421 42.4538C36.7482 46.3368 32.8148 54.3831 31.5652 56.6324V21.2868C32.6504 19.3335 35.7595 13.7371 41.0737 9.93348C43.3125 8.33112 44.4318 7.52993 45.8532 8.26045C47.2743 8.99101 47.2743 10.6036 47.2743 13.8288V36.9734C47.2743 38.7156 47.2743 39.5866 46.9167 40.1988C46.5588 40.8109 45.5866 41.3586 43.6421 42.4538Z" stroke="#202956" stroke-width="3.92729" stroke-linecap="round" stroke-linejoin="round"/>
</svg>
