<svg width="55" height="54" viewBox="0 0 55 54" fill="none" xmlns="http://www.w3.org/2000/svg">
<path d="M38.646 23.1948L38.9266 23.0265C43.6431 20.1962 46.0014 18.7811 47.8966 19.4644C49.7918 20.1477 49.7918 22.4129 49.7918 26.9436V29.4788C49.7918 34.0094 49.7918 36.2747 47.8966 36.9579C46.0014 37.6411 43.6431 36.2261 38.9266 33.3959L38.646 33.2274" stroke="#202956" stroke-width="3.34375" stroke-linecap="round"/>
<path d="M10.7812 48.274L19.6979 39.3574M24.1562 39.3574L33.0729 48.274M21.9271 39.3574V50.5032" stroke="#202956" stroke-width="3.34375" stroke-linecap="round" stroke-linejoin="round"/>
<path d="M5.2085 26.8183C5.2085 22.2209 5.2085 19.9222 7.49368 18.4939C9.77885 17.0657 13.4568 17.0657 20.8127 17.0657H23.0418C30.3976 17.0657 34.0755 17.0657 36.3609 18.4939C38.646 19.9222 38.646 22.2209 38.646 26.8183V29.6048C38.646 34.2022 38.646 36.5009 36.3609 37.9291C34.0755 39.3574 30.3976 39.3574 23.0418 39.3574H20.8127C13.4568 39.3574 9.77885 39.3574 7.49368 37.9291C5.2085 36.5009 5.2085 34.2022 5.2085 29.6048V26.8183Z" stroke="#EC5C52" stroke-width="3.34375"/>
<path d="M28.6144 17.0657C31.6923 17.0657 34.1873 14.5706 34.1873 11.4928C34.1873 8.41494 31.6923 5.91986 28.6144 5.91986C25.5366 5.91986 23.0415 8.41494 23.0415 11.4928C23.0415 14.5706 25.5366 17.0657 28.6144 17.0657Z" stroke="#EC5C52" stroke-width="3.34375"/>
<path d="M16.354 17.0657C20.0474 17.0657 23.0415 14.0716 23.0415 10.3782C23.0415 6.6848 20.0474 3.6907 16.354 3.6907C12.6606 3.6907 9.6665 6.6848 9.6665 10.3782C9.6665 14.0716 12.6606 17.0657 16.354 17.0657Z" stroke="#EC5C52" stroke-width="3.34375"/>
</svg>
