<svg width="54" height="54" viewBox="0 0 54 54" fill="none" xmlns="http://www.w3.org/2000/svg">
<path d="M37.896 22.8478L38.1766 22.6795C42.8931 19.8493 45.2514 18.4342 47.1466 19.1174C49.0418 19.8007 49.0418 22.066 49.0418 26.5966V29.1319C49.0418 33.6624 49.0418 35.9277 47.1466 36.6109C45.2514 37.2942 42.8931 35.8791 38.1766 33.049L37.896 32.8804" stroke="white" stroke-width="3.34375" stroke-linecap="round"/>
<path d="M10.0312 47.9272L18.9479 39.0105M23.4062 39.0105L32.3229 47.9272M21.1771 39.0105V50.1563" stroke="white" stroke-width="3.34375" stroke-linecap="round" stroke-linejoin="round"/>
<path d="M4.4585 26.4714C4.4585 21.8739 4.4585 19.5752 6.74368 18.147C9.02885 16.7188 12.7068 16.7188 20.0627 16.7188H22.2918C29.6476 16.7188 33.3255 16.7188 35.6109 18.147C37.896 19.5752 37.896 21.8739 37.896 26.4714V29.2578C37.896 33.8552 37.896 36.154 35.6109 37.5822C33.3255 39.0104 29.6476 39.0104 22.2918 39.0104H20.0627C12.7068 39.0104 9.02885 39.0104 6.74368 37.5822C4.4585 36.154 4.4585 33.8552 4.4585 29.2578V26.4714Z" stroke="white" stroke-width="3.34375"/>
<path d="M27.8644 16.7188C30.9423 16.7188 33.4373 14.2238 33.4373 11.1459C33.4373 8.06808 30.9423 5.573 27.8644 5.573C24.7866 5.573 22.2915 8.06808 22.2915 11.1459C22.2915 14.2238 24.7866 16.7188 27.8644 16.7188Z" stroke="white" stroke-width="3.34375"/>
<path d="M15.604 16.7188C19.2974 16.7188 22.2915 13.7247 22.2915 10.0312C22.2915 6.33785 19.2974 3.34375 15.604 3.34375C11.9106 3.34375 8.9165 6.33785 8.9165 10.0312C8.9165 13.7247 11.9106 16.7188 15.604 16.7188Z" stroke="white" stroke-width="3.34375"/>
</svg>
