<svg width="24" height="24" viewBox="0 0 24 24" fill="none" xmlns="http://www.w3.org/2000/svg">
<path d="M8 3.09779C8 3.09779 4.03374 2.74194 3.38783 3.38785C2.74191 4.03375 3.09783 8 3.09783 8" stroke="#40434C" stroke-width="1.5" stroke-linecap="round" stroke-linejoin="round"/>
<path d="M8 20.9022C8 20.9022 4.03374 21.2581 3.38783 20.6122C2.74191 19.9662 3.09783 16 3.09783 16" stroke="#40434C" stroke-width="1.5" stroke-linecap="round" stroke-linejoin="round"/>
<path d="M16 3.09779C16 3.09779 19.9663 2.74194 20.6122 3.38785C21.2581 4.03375 20.9022 8 20.9022 8" stroke="#40434C" stroke-width="1.5" stroke-linecap="round" stroke-linejoin="round"/>
<path d="M16 20.9022C16 20.9022 19.9663 21.2581 20.6122 20.6122C21.2581 19.9662 20.9022 16 20.9022 16" stroke="#40434C" stroke-width="1.5" stroke-linecap="round" stroke-linejoin="round"/>
<path d="M14.0117 9.99896L20.0635 3.94727" stroke="#40434C" stroke-width="1.5" stroke-linecap="round" stroke-linejoin="round"/>
<path d="M9.99792 14.002L3.64062 20.3803" stroke="#40434C" stroke-width="1.5" stroke-linecap="round" stroke-linejoin="round"/>
<path d="M9.99732 10.0029L3.8457 3.85938" stroke="#40434C" stroke-width="1.5" stroke-linecap="round" stroke-linejoin="round"/>
<path d="M13.9805 14.002L20.5289 20.4979" stroke="#40434C" stroke-width="1.5" stroke-linecap="round" stroke-linejoin="round"/>
</svg>
