<svg width="16" height="17" viewBox="0 0 16 17" fill="none" xmlns="http://www.w3.org/2000/svg">
<path d="M14.3628 8.07989C14.5655 8.36409 14.6668 8.50622 14.6668 8.71655C14.6668 8.92689 14.5655 9.06902 14.3628 9.35322C13.4521 10.6303 11.1263 13.3832 8.00016 13.3832C4.87402 13.3832 2.54823 10.6303 1.63752 9.35322C1.43484 9.06902 1.3335 8.92689 1.3335 8.71655C1.3335 8.50622 1.43484 8.36409 1.63752 8.07989C2.54823 6.80285 4.87402 4.04989 8.00016 4.04989C11.1263 4.04989 13.4521 6.80285 14.3628 8.07989Z" stroke="#717686"/>
<path d="M10 8.71655C10 7.61195 9.1046 6.71655 8 6.71655C6.8954 6.71655 6 7.61195 6 8.71655C6 9.82115 6.8954 10.7166 8 10.7166C9.1046 10.7166 10 9.82115 10 8.71655Z" stroke="#717686"/>
</svg>
