<svg width="54" height="54" viewBox="0 0 54 54" fill="none" xmlns="http://www.w3.org/2000/svg">
<path d="M48.0253 24.6211C48.703 25.5714 49.0418 26.0466 49.0418 26.7499C49.0418 27.4532 48.703 27.9285 48.0253 28.8788C44.9801 33.149 37.2032 42.3541 26.7502 42.3541C16.2971 42.3541 8.52026 33.149 5.47508 28.8788C4.79735 27.9285 4.4585 27.4532 4.4585 26.7499C4.4585 26.0466 4.79735 25.5714 5.47508 24.6211C8.52026 20.351 16.2971 11.1458 26.7502 11.1458C37.2032 11.1458 44.9801 20.351 48.0253 24.6211Z" stroke="white" stroke-width="3.34375"/>
<path d="M33.4375 26.75C33.4375 23.0565 30.4435 20.0625 26.75 20.0625C23.0565 20.0625 20.0625 23.0565 20.0625 26.75C20.0625 30.4435 23.0565 33.4375 26.75 33.4375C30.4435 33.4375 33.4375 30.4435 33.4375 26.75Z" stroke="white" stroke-width="3.34375"/>
</svg>
