<svg width="55" height="54" viewBox="0 0 55 54" fill="none" xmlns="http://www.w3.org/2000/svg">
<path d="M48.7753 24.9681C49.453 25.9184 49.7918 26.3937 49.7918 27.097C49.7918 27.8003 49.453 28.2755 48.7753 29.2258C45.7301 33.496 37.9532 42.7011 27.5002 42.7011C17.0471 42.7011 9.27026 33.496 6.22508 29.2258C5.54735 28.2755 5.2085 27.8003 5.2085 27.097C5.2085 26.3937 5.54735 25.9184 6.22508 24.9681C9.27026 20.698 17.0471 11.4928 27.5002 11.4928C37.9532 11.4928 45.7301 20.698 48.7753 24.9681Z" stroke="#EC5C52" stroke-width="3.34375"/>
<path d="M34.1875 27.097C34.1875 23.4034 31.1935 20.4095 27.5 20.4095C23.8065 20.4095 20.8125 23.4034 20.8125 27.097C20.8125 30.7905 23.8065 33.7845 27.5 33.7845C31.1935 33.7845 34.1875 30.7905 34.1875 27.097Z" stroke="#202956" stroke-width="3.34375"/>
</svg>
