<svg width="29" height="30" viewBox="0 0 29 30" fill="none" xmlns="http://www.w3.org/2000/svg">
<path fill-rule="evenodd" clip-rule="evenodd" d="M7.57343 13.0158C6.40943 13.0158 6.1665 13.2443 6.1665 14.3386V16.3227C6.1665 17.4172 6.40943 17.6455 7.57343 17.6455H10.3873V25.582C10.3873 26.6763 10.6302 26.9048 11.7942 26.9048H14.6081C15.7721 26.9048 16.015 26.6763 16.015 25.582V17.6455H19.1745C20.0573 17.6455 20.2848 17.4842 20.5273 16.6862L21.1303 14.702C21.5457 13.335 21.2897 13.0158 19.7775 13.0158H16.015V9.70901C16.015 8.97847 16.6448 8.38625 17.4219 8.38625H21.4263C22.5902 8.38625 22.8332 8.15785 22.8332 7.0635V4.418C22.8332 3.32364 22.5902 3.09525 21.4263 3.09525H17.4219C13.5367 3.09525 10.3873 6.05633 10.3873 9.70901V13.0158H7.57343Z" stroke="#EC5C52" stroke-width="1.78571" stroke-linejoin="round"/>
</svg>
