<svg width="4857" height="902" viewBox="0 0 4857 902" fill="none" xmlns="http://www.w3.org/2000/svg">
<path d="M629.899 895.769V560.676H713.605V895.769H629.899Z" fill="white"/>
<path d="M783.377 895.769V560.676H905.134C939.906 560.676 966.881 563.377 986.061 568.819C1005.24 574.26 1022.84 583.175 1038.93 595.64C1059.66 611.771 1075.32 631.067 1086.01 653.489C1096.67 675.911 1102.03 700.803 1102.03 728.087C1102.03 757.957 1095.55 785.049 1082.54 809.4C1069.57 833.752 1050.78 854.09 1026.2 870.376C1012.3 879.483 996.906 885.967 980.041 889.903C963.176 893.801 938.208 895.769 905.134 895.769H783.377ZM864.536 628.443V827.963H925.048C952.564 827.963 975.024 818.662 992.429 800.061C1009.83 781.46 1018.52 757.456 1018.52 728.087C1018.52 698.719 1009.83 674.753 992.429 656.229C975.024 637.705 952.602 628.443 925.048 628.443H864.536Z" fill="white"/>
<path d="M1154.36 895.769V560.676H1371.17V622.461H1235.52V690.73H1365.15V753.018H1235.52V833.019H1375.11V895.769H1154.36Z" fill="white"/>
<path d="M1390.2 895.769L1531.64 560.676H1625.3L1751.69 895.769H1665.67L1642.47 830.626H1502.65L1476.68 895.769H1390.2ZM1526.08 773.124H1621.86L1576.4 645.694L1526.08 773.124Z" fill="white"/>
<path d="M1773.22 869.179V794.696C1797.65 810.365 1818.26 821.286 1835.01 827.499C1851.79 833.713 1868.04 836.839 1883.83 836.839C1899.61 836.839 1911.81 834.33 1919.99 829.275C1928.17 824.258 1932.26 816.771 1932.26 806.891C1932.26 798.903 1929.71 792.497 1924.62 787.595C1919.52 782.733 1907.6 776.944 1888.92 770.229C1842.69 753.48 1810.89 736.345 1793.48 718.863C1776.08 701.381 1767.39 679.075 1767.39 651.906C1767.39 623.31 1778.7 600.078 1801.36 582.21C1824.01 564.342 1853.49 555.388 1889.81 555.388C1908.22 555.388 1926.66 557.704 1945.23 562.335C1963.79 566.966 1982.08 573.758 2000.18 582.711V651.443C1978.38 640.097 1958.81 631.723 1941.52 626.281C1924.19 620.84 1908.45 618.139 1894.21 618.139C1878.73 618.139 1866.96 620.454 1858.86 625.085C1850.75 629.716 1846.7 636.354 1846.7 644.96C1846.7 651.984 1850.33 658.583 1857.58 664.719C1864.84 670.855 1875.84 676.721 1890.5 682.317C1893.59 683.59 1898.3 685.443 1904.67 687.835C1935.58 699.645 1957.77 709.794 1971.24 718.246C1985.28 727.199 1995.94 738.699 2003.11 752.747C2010.29 766.794 2013.88 783.235 2013.88 802.106C2013.88 833.095 2002.57 857.447 1979.92 875.16C1957.27 892.874 1925.85 901.75 1885.68 901.75C1865.57 901.75 1846.12 899.049 1827.37 893.607C1808.57 888.166 1790.55 880.023 1773.22 869.179Z" fill="white"/>
<path d="M2106.73 717.127C2142.39 717.127 2162.42 697.599 2162.42 664.102C2162.42 630.604 2143.28 611.308 2114.99 611.308C2104.76 611.308 2096.51 613.778 2089.1 619.181V561.409H2069.3H2069.07V887.973H2069.3C2082.15 892.488 2094.31 894.958 2106.73 894.958C2142.39 894.958 2162.42 875.431 2162.42 841.933C2162.42 808.435 2143.28 789.139 2114.99 789.139C2104.84 789.139 2096.62 791.609 2089.25 796.896L2089.1 715.429C2095 716.509 2100.83 717.088 2106.73 717.088V717.127ZM2089.1 637.589C2096.27 632.418 2103.26 629.948 2110.86 629.948C2129.58 629.948 2141.54 642.992 2141.54 664.333C2141.54 685.675 2129.58 698.487 2108.89 698.487C2102.6 698.487 2096.04 697.136 2089.1 694.435V637.589ZM2110.86 807.818C2129.58 807.818 2141.54 820.862 2141.54 842.203C2141.54 863.544 2129.58 876.357 2108.89 876.357C2102.68 876.357 2096.27 875.006 2089.4 872.42L2089.29 815.343C2096.39 810.249 2103.3 807.818 2110.86 807.818Z" fill="#EE5A50"/>
<path d="M2234.2 717.126C2248.98 717.126 2262.72 712.843 2275.76 704.082V683.86C2261.18 693.508 2247.71 698.255 2235.28 698.255C2216.8 698.255 2205.02 687.025 2203.94 667.69H2277.5V664.757C2277.5 631.491 2259.21 611.5 2231.38 611.5C2202.67 611.5 2183.3 632.417 2183.3 662.519C2183.3 695.09 2202.86 717.126 2234.2 717.126ZM2231.15 628.828C2244.66 628.828 2254.65 638.476 2255.97 653.334H2203.94C2206.76 637.396 2216.14 628.828 2231.15 628.828Z" fill="#EE5A50"/>
<path d="M2317.25 765.867L2390.15 613.545H2368.85L2340.56 672.861L2310.3 613.545H2288.54L2329.87 694.858L2295.95 765.867H2317.25Z" fill="#EE5A50"/>
<path d="M2454.72 716.895C2468.65 716.895 2481.27 711.724 2491.26 701.613C2501.06 691.733 2506.7 677.994 2506.7 664.063C2506.7 650.131 2501.26 637.087 2491.26 626.783C2481.46 616.903 2468.65 611.269 2454.72 611.269C2425.35 611.269 2402.5 634.849 2402.5 664.063C2402.5 693.277 2425.54 716.856 2454.72 716.856V716.895ZM2454.48 630.603C2471.89 630.603 2486.05 645.423 2486.05 664.063C2486.05 682.703 2471.89 697.753 2454.48 697.753C2437.08 697.753 2422.95 682.934 2422.95 664.063C2422.95 645.191 2437.08 630.603 2454.48 630.603Z" fill="#EE5A50"/>
<path d="M2617.65 714.889V647.7C2617.65 625.472 2604.61 611.964 2583.27 611.964C2571.96 611.964 2562.58 616.441 2553.01 625.896V613.547H2533.44V714.889H2553.01V641.873C2560.19 632.65 2567.17 628.829 2577.36 628.829C2591.52 628.829 2598.05 636.47 2598.05 652.872V714.889H2617.61H2617.65Z" fill="#EE5A50"/>
<path d="M2692.44 716.895C2702.24 716.895 2710.5 714.657 2717.91 709.254V714.889H2737.48V561.409H2717.91V619.181C2710.5 613.778 2702.24 611.308 2692.44 611.308C2664.39 611.308 2644.36 632.649 2644.36 664.102C2644.36 695.554 2664.39 716.895 2692.44 716.895ZM2697.46 628.366C2705.06 628.366 2711.62 630.604 2717.91 635.351V692.428C2711.62 697.136 2705.06 699.413 2697.46 699.413C2677.66 699.413 2665.27 686.176 2665.27 663.909C2665.27 641.641 2677.66 628.404 2697.46 628.404V628.366Z" fill="#EE5A50"/>
<path d="M2227.48 789.139C2198.12 789.139 2175.27 812.719 2175.27 841.933C2175.27 871.147 2198.31 894.726 2227.48 894.726C2241.42 894.726 2254.04 889.555 2264.03 879.444C2273.83 869.565 2279.47 855.826 2279.47 841.894C2279.47 827.963 2274.03 814.918 2264.03 804.614C2254.23 794.735 2241.42 789.101 2227.48 789.101V789.139ZM2227.25 875.662C2209.85 875.662 2195.72 860.843 2195.72 841.971C2195.72 823.1 2209.85 808.512 2227.25 808.512C2244.66 808.512 2258.82 823.331 2258.82 841.971C2258.82 860.611 2244.66 875.662 2227.25 875.662Z" fill="#EE5A50"/>
<path d="M2317.98 813.414V791.378H2298.42V892.72H2317.98V835.412C2321.46 818.547 2330.18 809.323 2340.4 809.323C2347.16 809.323 2352.6 812.025 2358.7 817.428L2369.35 799.444C2361.28 792.922 2354.11 789.564 2346.93 789.564C2335.62 789.564 2327.79 797.437 2317.98 813.376V813.414Z" fill="#EE5A50"/>
<path d="M2447.65 797.012C2440.24 791.609 2431.98 789.139 2422.18 789.139C2394.13 789.139 2374.1 810.481 2374.1 841.933C2374.1 873.386 2394.13 894.727 2422.18 894.727C2431.98 894.727 2440.24 892.488 2447.65 887.086V892.72H2467.22V739.24H2447.65V797.012ZM2447.65 870.26C2441.36 874.968 2434.8 877.245 2427.2 877.245C2407.4 877.245 2395.01 864.008 2395.01 841.74C2395.01 819.473 2407.4 806.236 2427.2 806.236C2434.8 806.236 2441.36 808.474 2447.65 813.221V870.298V870.26Z" fill="#EE5A50"/>
<path d="M2534.48 789.37C2505.77 789.37 2486.4 810.287 2486.4 840.389C2486.4 872.96 2505.96 894.996 2537.3 894.996C2552.08 894.996 2565.82 890.713 2578.86 881.952V861.73C2564.28 871.378 2550.81 876.125 2538.38 876.125C2519.9 876.125 2508.13 864.895 2507.04 845.56H2580.6V842.627C2580.6 809.361 2562.31 789.37 2534.48 789.37ZM2507.08 831.165C2509.9 815.227 2519.28 806.659 2534.29 806.659C2547.8 806.659 2557.79 816.307 2559.11 831.165H2507.08Z" fill="#EE5A50"/>
<path d="M2618.89 813.414V791.378H2599.32V892.72H2618.89V835.412C2622.36 818.547 2631.08 809.323 2641.31 809.323C2648.06 809.323 2653.5 812.025 2659.6 817.428L2670.25 799.444C2662.19 792.922 2655.01 789.564 2647.83 789.564C2636.52 789.564 2628.69 797.437 2618.89 813.376V813.414Z" fill="#EE5A50"/>
<path d="M2718.34 834.754C2703.75 827.345 2695.92 823.756 2695.92 815.651C2695.92 810.249 2700.47 807.123 2708.77 807.123C2718.11 807.123 2728.14 810.712 2739.45 817.234V797.475C2729.64 791.84 2719.65 789.177 2708.57 789.177C2687.7 789.177 2675.5 800.176 2675.5 816.809C2675.5 831.628 2683.76 839.038 2699.43 847.374C2713.59 855.015 2722.7 857.948 2722.7 865.782C2722.7 872.304 2716.83 876.588 2706.61 876.588C2698.12 876.588 2687 872.767 2674.61 864.238V885.811C2685.26 891.87 2696.15 894.803 2708.53 894.803C2730.3 894.803 2744 882.878 2744 865.358C2744 849.419 2734.85 843.322 2718.34 834.793V834.754Z" fill="#EE5A50"/>
<path d="M780.869 341.434C739.113 317.391 697.125 293.696 655.639 269.151C638.89 259.233 623.8 258.886 606.743 268.765C516.978 320.671 426.905 372.037 336.754 423.326C329.576 427.416 326.604 431.662 326.643 440.229C326.99 544.543 326.874 648.818 326.797 753.132C326.797 768.183 332.123 779.876 345.476 787.44C406.721 822.25 467.966 857.098 529.212 891.87C531.257 893.027 533.495 893.876 538.203 896.076C538.203 890.442 538.203 886.351 538.203 882.26C538.203 775.939 538.396 669.619 537.933 563.298C537.895 552.84 541.368 547.707 550.167 542.729C643.251 490.051 736.064 436.949 828.916 383.923C832.737 381.724 836.519 379.485 841.574 376.552C820.657 364.473 800.783 352.973 780.869 341.511V341.434Z" fill="#EE5A50"/>
<path d="M235.256 836.105C235.256 687.604 235.41 539.102 234.947 390.601C234.947 379.563 238.768 374.238 247.914 369.028C379.898 293.889 511.689 218.365 643.519 142.918C646.992 140.95 650.311 138.75 654.981 135.856C627.967 120.381 602.11 105.523 576.215 90.742C531.873 65.4258 487.338 40.4954 443.266 14.7547C427.521 5.5698 413.396 5.87857 397.728 14.9091C267.866 89.6615 137.812 164.105 7.67977 238.433C1.89099 241.752 0 245.264 0 251.709C0.154367 401.445 0.154363 551.143 0.115771 700.879C0.115771 714.502 5.17131 725.578 17.0962 732.409C88.4139 773.316 159.809 813.992 231.242 854.745C231.86 855.092 232.786 854.938 235.256 855.169C235.256 848.184 235.256 842.164 235.256 836.144V836.105Z" fill="white"/>
<path d="M3573.42 427.903C3579.46 452.44 3597.5 462.702 3618.55 471.718C3664.67 491.458 3689 543.944 3676.99 595.553C3674.87 604.639 3677.36 606.438 3685.24 605.815C3687.87 605.608 3690.52 605.815 3693.18 605.815C3865.41 605.815 4037.68 605.723 4209.92 606.046C4219.39 606.046 4222.18 603.233 4220.66 594.516C4219.65 588.658 4219.32 582.663 4217.92 576.921C4210.86 548.118 4197.21 536.657 4167.37 534.305C4160.8 533.774 4154.16 533.521 4147.56 533.521C4015.31 533.474 3883.08 533.498 3750.83 533.498H3737.06C3784.84 465.008 3831.56 398.086 3879.16 329.85H3563.76C3562.45 325.745 3565.35 323.785 3566.8 321.502C3580.55 300.125 3594.68 278.978 3608.17 257.417C3611.84 251.559 3615.95 249.807 3622.59 249.853C3720.43 250.337 3818.3 250.406 3916.15 251.167C3925.93 251.236 3927.52 247.985 3927.24 239.499C3925.74 192.778 3888.2 161.093 3838.6 164.39C3822.61 165.451 3808.2 169.833 3795.13 178.965C3789.22 183.092 3783.13 186.921 3776.38 191.394C3765.86 155.812 3755.51 120.829 3744.92 84.9929C3753.99 86.8839 3762.24 88.5904 3770.47 90.343C3789.45 94.4016 3807.95 89.0285 3826.63 87.4604C3848.56 85.6156 3870.23 87.1606 3891.73 91.2193C3950.78 102.381 3995.15 162.476 4002.69 213.924C4004.19 224.117 4005.18 234.31 4004.54 244.526C4004.19 249.945 4006.13 251.144 4011.13 251.144C4064.36 251.098 4117.58 251.075 4170.81 251.49C4178.09 251.536 4178.62 248.446 4178.6 242.681C4178.44 203.017 4178.72 163.33 4178.35 123.665C4178.28 116.401 4180.19 113.357 4187.59 111.951C4207.03 108.284 4226.45 104.249 4245.59 99.2213C4254.86 96.7769 4255.94 99.7286 4255.9 107.869C4255.6 152.491 4255.9 197.136 4255.6 241.759C4255.55 248.792 4256.73 251.536 4264.62 251.259C4283.11 250.591 4301.65 250.706 4320.15 251.213C4327.2 251.398 4328.86 249.23 4328.82 242.381C4328.49 202.717 4328.89 163.03 4328.45 123.366C4328.36 115.71 4330.98 113.311 4338.04 111.951C4357.16 108.307 4376.23 104.248 4395.09 99.498C4403.6 97.3534 4406.39 98.1375 4406.28 107.961C4405.75 152.261 4406.28 196.56 4405.84 240.859C4405.75 249.115 4407.82 251.513 4416.12 251.213C4433.95 250.568 4451.84 250.522 4469.67 251.213C4477.88 251.536 4479.24 248.608 4479.17 241.251C4478.83 201.91 4479.22 162.569 4478.83 123.227C4478.76 116.309 4480.6 113.45 4487.45 112.089C4507.84 108.03 4528.11 103.395 4548.35 98.7601C4553.91 97.4917 4556.56 97.6762 4556.52 104.825C4556.24 172.6 4556.26 240.375 4556.47 308.15C4556.49 316.821 4552.43 321.617 4544.92 324.523C4536.13 327.913 4527.02 328.674 4517.68 328.674C4395.39 328.674 4273.08 328.697 4150.79 328.766C4095.58 328.789 4040.37 328.881 3985.14 328.881C3980.09 328.881 3975.83 328.927 3972.32 334.001C3943.54 375.902 3914.46 417.595 3885.18 459.796C3888.75 462.356 3892.44 461.157 3895.76 461.18C3980.74 461.272 4065.7 461.295 4150.67 461.203C4168.89 461.203 4187.09 461.918 4204.89 465.861C4250.04 475.869 4276.19 504.695 4286.09 549.179C4289.68 565.321 4292.45 581.602 4292.59 598.205C4292.63 603.325 4293.81 605.862 4299.81 605.838C4366.24 605.631 4432.68 605.7 4499.12 605.654C4499.63 605.654 4500.16 605.17 4501.66 604.432C4481.87 590.665 4467.55 572.332 4453.3 553.814C4448.85 548.026 4448.75 543.552 4452.33 537.095C4464.53 514.934 4475.94 492.358 4488.16 468.997C4496.77 480.781 4504.45 491.781 4512.65 502.343C4519.14 510.691 4526.08 518.693 4533.18 526.533C4540.4 534.512 4546.32 544.036 4560.6 538.271C4575.49 532.252 4588.46 525.242 4591.36 508.085C4593.51 495.401 4595.42 482.511 4595.51 469.712C4596.06 387.063 4596.11 304.414 4596.27 221.765C4596.34 183.415 4596.36 145.066 4596.2 106.716C4596.2 101.527 4596.83 98.3681 4602.94 97.1459C4622.68 93.2256 4642.32 88.7979 4661.9 84.2319C4667.76 82.8714 4669.01 84.5087 4669.01 90.2738C4668.8 210.95 4668.84 331.626 4668.59 452.301C4668.57 465.815 4666.86 479.282 4663.4 492.496C4654.66 525.911 4630.96 545.028 4596.43 546.734C4581.1 547.495 4566.22 544.497 4551.14 542.122C4550.57 545.996 4553.56 546.965 4555.27 548.51C4583.82 574.269 4614.84 595.646 4653.58 603.002C4664.32 605.031 4675.19 605.815 4686.12 605.792C4738.35 605.746 4790.58 605.792 4842.84 605.792C4846.39 605.792 4849.94 605.792 4853.14 605.792C4854.76 609.275 4852.57 610.935 4851.46 612.78C4839.81 632.335 4827.89 651.752 4816.43 671.446C4813.78 675.989 4811.06 678.594 4805.62 677.764C4803.36 677.418 4801 677.695 4798.68 677.695C4432.04 677.695 4065.37 677.695 3698.73 677.695C3557.9 677.695 3417.05 677.787 3276.22 677.649C3221.91 677.603 3178.53 639.115 3170.14 584.231C3162.44 533.797 3194.56 482.073 3243.47 466.345C3253.6 463.094 3264 461.433 3274.65 461.364C3307.37 461.134 3340.12 461.249 3372.82 460.349C3382.04 460.096 3383.63 463.071 3383.56 471.396C3383.26 513.043 3383.77 554.713 3383.45 596.361C3383.38 603.971 3385.52 605.7 3392.83 605.585C3416.96 605.193 3441.1 605.354 3465.22 605.792C3472.07 605.931 3470.66 603.233 3469.63 598.736C3458.42 550.562 3474.56 506.309 3512.75 479.905C3519.58 475.2 3526.72 470.888 3534.63 468.536C3555.16 462.471 3568.3 449.695 3573.44 427.88L3573.42 427.903ZM3312.61 569.703C3312.63 549.455 3297.29 533.82 3277.16 533.59C3257.35 533.359 3241.1 549.225 3240.87 569.057C3240.61 589.419 3256.75 605.769 3277.02 605.7C3297 605.631 3312.58 589.857 3312.63 569.703H3312.61ZM3573.35 533.567C3553.36 533.59 3537.54 549.386 3537.42 569.403C3537.31 589.35 3553.04 605.423 3572.94 605.7C3593.05 605.977 3609.7 589.419 3609.51 569.334C3609.33 549.548 3593.14 533.544 3573.35 533.567Z" fill="white"/>
<path d="M3429.09 420.132C3379.18 420.132 3329.28 420.178 3279.4 420.04C3276.08 420.04 3270.57 422.392 3270.94 415.381C3271.26 409.109 3276.24 412.084 3279.26 411.599C3284.13 410.815 3289.15 410.839 3294 409.916C3307.1 407.426 3313.78 400.738 3315.42 387.547C3316.44 379.384 3316.34 371.059 3316.34 362.803C3316.39 291.085 3316.34 219.344 3316.3 147.625C3316.3 144.973 3316.09 142.321 3316.2 139.693C3317.4 113.565 3302.07 106.578 3282.1 106.232C3279.79 106.186 3277.46 106.162 3275.16 106.186C3272.51 106.209 3270.8 105.494 3270.84 102.288C3270.89 99.2443 3271.49 97.0766 3275.11 97.0997C3277.42 97.1227 3279.75 97.0767 3282.05 97.0767C3379.87 97.0767 3477.7 97.0767 3575.52 97.0767C3577.83 97.0767 3580.16 97.1228 3582.46 97.1228C3586.15 97.1228 3586.5 99.521 3586.57 102.45C3586.61 105.701 3584.79 106.162 3582.16 106.209C3575.57 106.301 3568.99 106.024 3562.47 107.754C3549.37 111.236 3543.26 117.762 3542.08 131.068C3541.32 139.623 3540.86 148.225 3540.84 156.803C3540.75 224.901 3540.77 292.976 3540.84 361.074C3540.84 368.338 3541.09 375.625 3541.71 382.843C3543.24 400.922 3549.74 407.887 3567.68 410.654C3572.55 411.415 3577.55 411.392 3582.48 411.507C3585.39 411.576 3586.59 412.729 3586.57 415.658C3586.54 418.356 3585.92 420.201 3582.78 420.109C3581.12 420.063 3579.49 420.132 3577.83 420.132C3528.25 420.132 3478.69 420.132 3429.11 420.132H3429.09ZM3463.03 259.054C3463.03 259.054 3462.89 259.054 3462.82 259.054C3462.82 218.121 3463.1 177.166 3462.71 136.233C3462.52 116.978 3452.63 107.523 3433.33 106.37C3427.06 106.001 3420.83 106.278 3414.67 108.007C3402.41 111.489 3396.41 118.315 3395.35 131.137C3394.68 139.347 3394.2 147.602 3394.17 155.858C3394.08 215.631 3394.08 275.381 3394.17 335.154C3394.2 352.311 3393.83 369.468 3395.16 386.625C3396.02 397.648 3401.55 404.566 3411.26 408.14C3423.44 412.614 3435.91 412.199 3448.04 407.679C3455.35 404.958 3459.53 399.239 3461.39 391.675C3462.99 385.172 3463.03 378.577 3463.03 371.981C3463.08 334.347 3463.03 296.689 3463.03 259.054Z" fill="white"/>
<path d="M4855.89 537.026C4854.02 547.126 4847.49 554.229 4839.79 559.925C4815.58 577.866 4788.39 583.516 4759.2 576.39C4732.45 569.864 4718.63 552.176 4716.95 524.665C4716.72 521.045 4716.76 517.401 4716.76 513.758C4716.76 350.881 4716.83 187.981 4716.51 25.1045C4716.51 16.5951 4719.12 14.0124 4726.96 12.5595C4745.11 9.21576 4763.19 5.27241 4781.03 0.637243C4788.53 -1.29984 4789.17 1.23683 4789.15 7.46318C4788.97 47.773 4789.08 88.0598 4789.08 128.37C4789.08 257.555 4789.04 386.74 4789.13 515.925C4789.13 535.55 4798.01 543.483 4817.65 542.076C4830.18 541.177 4842.61 539.516 4854.64 535.757C4855.04 536.172 4855.45 536.587 4855.87 536.979L4855.89 537.026Z" fill="white"/>
<path d="M3297.2 793.529C3309.59 798.787 3317.96 806.72 3319.66 819.795C3322.06 838.128 3311.98 853.141 3293.7 857.453C3271.91 862.595 3249.63 859.298 3227.58 860.059C3223.11 860.22 3223.25 857.061 3223.25 853.994C3223.25 816.036 3223.29 778.055 3223.2 740.098C3223.2 736.016 3224.52 733.871 3228.8 733.987C3247.25 734.494 3265.84 732.257 3284.17 735.301C3310.19 739.613 3321.95 765.603 3306.77 784.512C3304.35 787.533 3301.15 789.885 3297.23 793.552L3297.2 793.529ZM3251.06 820.164C3251.06 825.768 3251.08 829.734 3251.06 833.701C3251.04 836.399 3251.96 838.266 3254.96 838.174C3263.51 837.944 3272.16 839.373 3280.55 836.56C3287.31 834.3 3290.65 829.688 3290.72 822.447C3290.81 810.848 3283.94 805.313 3268.05 805.29C3247.41 805.267 3251.5 803.399 3251.08 820.164H3251.06ZM3251.06 770.007C3251.66 776.464 3247.09 786.127 3261.83 784.997C3278.85 783.682 3284.89 780.8 3284.68 769.869C3284.5 759.584 3277.92 756.448 3260.97 755.387C3248.52 754.626 3251.04 762.328 3251.04 770.03L3251.06 770.007Z" fill="#EE5A50"/>
<path d="M4189.88 778.447C4205.81 767.124 4221.84 764.68 4237.52 778.724C4241.14 781.952 4242.73 778.931 4244.92 777.363C4251.82 772.382 4259.63 769.845 4267.98 769.223C4289.29 767.632 4304.1 781.33 4304.37 802.937C4304.58 819.126 4304.07 835.314 4304.58 851.48C4304.81 858.536 4302.55 860.358 4295.68 860.266C4277.99 860.012 4278.01 860.335 4277.97 842.625C4277.94 831.394 4278.13 820.164 4277.6 808.956C4277.18 800.401 4274.26 793.252 4263.81 792.998C4254.56 792.791 4247.07 799.501 4246.61 809.786C4245.98 823.3 4245.87 836.883 4246.44 850.396C4246.79 858.214 4244.46 860.543 4236.6 860.312C4219.65 859.805 4219.62 860.243 4219.62 842.832C4219.62 831.924 4219.74 821.04 4219.6 810.132C4219.46 798.625 4215.13 793.206 4206.25 793.021C4197.09 792.814 4189.42 799.709 4189 809.832C4188.45 823.692 4188.42 837.574 4188.91 851.434C4189.16 858.421 4186.97 860.381 4180.03 860.289C4161.28 860.081 4161.26 860.404 4161.26 841.817C4161.26 821.017 4161.51 800.193 4161.12 779.416C4161 772.913 4162.9 770.975 4169.42 771.022C4185.7 771.137 4185.7 770.814 4189.9 778.493L4189.88 778.447Z" fill="#EE5A50"/>
<path d="M3877.87 797.426C3877.87 779.254 3878.05 761.106 3877.75 742.934C3877.66 736.777 3879.09 734.263 3885.96 734.24C3906.02 734.148 3906.02 733.802 3906.02 753.842C3906.02 761.106 3906.21 768.37 3905.98 775.634C3905.82 780.776 3907.92 782.575 3913.01 782.483C3926.55 782.252 3940.08 782.183 3953.62 782.506C3959.2 782.644 3961.19 780.915 3960.98 775.219C3960.61 764.334 3961.09 753.427 3960.77 742.542C3960.61 736.961 3961.65 734.379 3968.22 734.263C3989.34 733.894 3989.34 733.595 3989.34 754.787C3989.34 787.141 3989.18 819.518 3989.48 851.872C3989.55 858.352 3987.64 860.266 3981.13 860.289C3960.86 860.335 3960.86 860.589 3960.86 840.342C3960.86 832.086 3960.52 823.807 3960.98 815.575C3961.3 809.764 3959.09 808.288 3953.6 808.426C3940.41 808.772 3927.17 808.956 3913.98 808.357C3906.92 808.034 3905.75 810.986 3905.91 817.005C3906.26 828.881 3905.79 840.78 3906.09 852.656C3906.23 858.006 3904.83 860.082 3898.97 860.243C3877.84 860.797 3877.84 861.05 3877.84 840.019C3877.84 825.814 3877.84 811.608 3877.84 797.426H3877.87Z" fill="#EE5A50"/>
<path d="M4702.12 800.539C4701.68 813.13 4700.64 825.56 4695.18 837.228C4687.27 854.155 4674.08 863.033 4655.4 863.194C4637.07 863.356 4623.21 854.893 4615.9 838.404C4604.99 813.799 4604.67 788.317 4615.25 763.411C4622.72 745.816 4638.7 736.384 4657.04 737.491C4676.39 738.667 4689.92 748.145 4696.82 766.525C4700.92 777.501 4702.03 788.962 4702.14 800.562L4702.12 800.539ZM4635.66 799.501C4635.66 809.094 4636.4 818.595 4640.43 827.451C4643.32 833.769 4647.74 838.404 4655.47 838.243C4662.69 838.081 4667.07 833.861 4669.56 827.681C4676.87 809.486 4676.71 791.13 4669.61 772.935C4667.16 766.686 4662.32 762.904 4655.24 762.743C4648.04 762.581 4643.57 766.594 4640.62 772.59C4636.47 781.076 4635.68 790.208 4635.68 799.501H4635.66Z" fill="#EE5A50"/>
<path d="M4824.04 848.481C4823.9 874.471 4802.69 895.525 4776.72 895.433C4750.78 895.34 4729.75 874.102 4729.75 848.066C4729.75 821.477 4751.08 800.4 4777.62 800.723C4803.59 801.023 4824.16 822.215 4824.02 848.481H4824.04Z" fill="#EE5A50"/>
<path d="M4776.93 792.629C4750.66 792.629 4729.91 771.99 4729.72 745.701C4729.54 719.273 4751.17 697.665 4777.39 698.057C4803.52 698.45 4824.11 719.481 4824.02 745.677C4823.93 771.943 4803.17 792.629 4776.93 792.629Z" fill="#EE5A50"/>
<path d="M4365.07 362.042C4390.18 361.973 4409.57 381.228 4409.67 406.387C4409.76 431.592 4390.55 451.286 4365.69 451.424C4340.49 451.563 4320.17 431.546 4320.17 406.526C4320.17 382.127 4340.35 362.111 4365.04 362.042H4365.07Z" fill="#EE5A50"/>
<path d="M4084.72 26.6035C4109.76 26.6035 4129.43 46.0436 4129.53 70.8798C4129.6 95.6468 4109.88 115.802 4085.3 116.032C4060.09 116.263 4040.05 96.2925 4040.12 70.972C4040.19 45.9283 4059.58 26.6266 4084.72 26.6266V26.6035Z" fill="#EE5A50"/>
<path d="M4448.59 406.111C4448.78 381.16 4468.45 361.858 4493.51 362.043C4518.37 362.227 4538.07 382.036 4538.04 406.803C4538.02 431.847 4517.7 451.656 4492.34 451.426C4467.66 451.195 4448.43 431.271 4448.59 406.111Z" fill="#EE5A50"/>
<path d="M4366.43 551.185C4341.08 551.277 4321.74 532.206 4321.67 507.07C4321.58 481.842 4341.73 461.479 4366.59 461.687C4391.08 461.871 4411.12 482.164 4411.12 506.724C4411.12 531.468 4391.4 551.092 4366.43 551.185Z" fill="#EE5A50"/>
<path d="M4085.76 128.992C4110.27 128.923 4130.61 148.986 4130.84 173.499C4131.07 197.736 4110.82 218.398 4086.4 218.813C4061.77 219.228 4040.72 198.382 4040.84 173.661C4040.93 149.24 4061.22 129.062 4085.76 128.992Z" fill="#EE5A50"/>
<path d="M4149.01 859.251C4147.08 859.781 4146.78 859.873 4146.45 859.943C4123.25 865.846 4110.5 854.108 4102.02 834.207C4100.47 830.564 4099.13 823.761 4093.6 825.167C4087.95 826.597 4086.93 832.616 4087.49 838.335C4087.74 840.941 4087.56 843.616 4087.53 846.245C4087.28 862.226 4089.61 859.92 4074.09 860.058C4060.07 860.196 4060.07 860.081 4060.07 845.968C4060.07 811.977 4060.25 777.986 4059.93 743.994C4059.86 736.776 4061.04 733.479 4069.43 733.732C4087.53 734.24 4087.56 733.732 4087.56 752.273C4087.56 766.755 4087.56 781.214 4087.56 796.688C4095.9 793.528 4099.8 786.656 4104.46 781.283C4111.31 773.373 4118.85 769.545 4129.32 771.044C4133.7 771.667 4138.24 771.137 4145.39 771.137C4136.28 780.591 4129.69 788.755 4121.76 795.35C4113.89 801.876 4114.47 806.973 4120 814.721C4130.1 828.857 4139.07 843.8 4149.04 859.274L4149.01 859.251Z" fill="#EE5A50"/>
<path d="M4496.79 860.081C4485.9 860.081 4474.97 859.735 4464.11 860.22C4457.89 860.496 4456.82 858.144 4456.29 852.333C4454.52 832.593 4462.68 817.834 4477.49 805.889C4485.44 799.478 4493.56 793.206 4501.29 786.518C4507.35 781.26 4512.22 774.78 4506.2 766.847C4500.55 759.399 4492.48 760.114 4484.57 763.181C4483.04 763.757 4481.22 764.541 4480.44 765.81C4473.89 776.118 4467.8 771.068 4460.45 766.34C4452.86 761.474 4453.64 757.808 4459.15 752.112C4474 736.777 4502.28 732.626 4520.56 743.51C4535.97 752.688 4541.13 771.598 4532.62 787.487C4526.84 798.302 4517.47 805.635 4508.07 812.923C4502.07 817.558 4495.82 821.939 4490.93 827.843C4489.46 829.618 4487.77 831.625 4488.69 834.046C4489.78 836.882 4492.64 835.845 4494.78 835.868C4506.01 835.96 4517.24 836.283 4528.45 835.775C4535.23 835.476 4538.34 837.459 4537.42 844.562C4537.08 847.167 4537.1 849.865 4537.42 852.471C4538.21 858.721 4535.46 860.404 4529.51 860.174C4518.63 859.735 4507.72 860.058 4496.83 860.058L4496.79 860.081Z" fill="#EE5A50"/>
<path d="M3473.96 825.467C3479.63 809.717 3485.49 794.658 3490.38 779.3C3492.48 772.681 3495.71 770.375 3502.42 770.998C3508.58 771.575 3514.8 771.113 3522.46 771.113C3516.95 784.419 3511.94 796.526 3506.92 808.61C3497.07 832.362 3487.84 856.414 3477.14 879.798C3468.27 899.169 3449.73 905.233 3430.65 897.024C3425.26 894.695 3422.47 892.712 3426.76 886.393C3431.02 880.144 3432.8 873.871 3443.57 877.584C3453.76 881.089 3463.01 864.509 3457.77 852.978C3446.89 828.949 3435.73 805.035 3424.7 781.076C3421.66 774.48 3423.7 771.167 3430.82 771.136C3444.45 771.075 3453.7 777.301 3458.56 789.815C3462.87 800.861 3467.32 811.884 3471.75 822.907C3471.98 823.484 3472.58 823.899 3473.96 825.49V825.467Z" fill="#EE5A50"/>
<path d="M3294.94 353.21C3294.94 376.386 3276.82 394.972 3253.87 395.341C3230.9 395.687 3211.35 376.386 3211.3 353.325C3211.26 330.288 3230.74 310.963 3253.76 311.193C3276.59 311.424 3294.92 330.149 3294.92 353.21H3294.94Z" fill="#EE5A50"/>
<path d="M3413.68 828.233C3413.68 836.812 3413.47 845.413 3413.75 853.992C3413.91 858.789 3411.77 861.371 3407.45 859.941C3400.81 857.751 3391.54 866.007 3387.12 854.707C3386.29 852.585 3384.39 854.983 3383.29 855.791C3375.72 861.371 3367.14 862.893 3357.99 862.409C3344.68 861.717 3334.7 854.591 3331.86 843.569C3328.47 830.424 3333.04 817.602 3343.95 810.546C3354.37 803.812 3366.08 802.682 3378.17 803.028C3381.23 803.12 3386.33 805.818 3386.93 800.353C3387.42 795.787 3383.7 792.19 3379.32 791.06C3370.17 788.684 3360.57 788.5 3352.29 793.204C3340.9 799.684 3340.63 788.615 3337.19 784.026C3332.37 777.592 3339.89 776.439 3343.3 774.779C3356.79 768.207 3371.27 766.938 3385.82 769.613C3402.01 772.588 3411.97 784.349 3413.22 801.506C3413.87 810.361 3413.34 819.332 3413.34 828.233C3413.45 828.233 3413.57 828.233 3413.66 828.233H3413.68ZM3377.64 820.416C3363.57 820.37 3357.78 823.806 3357.51 832.292C3357.23 840.617 3362.49 843.13 3369.45 843.43C3379.87 843.891 3387.28 836.65 3387.65 826.942C3387.97 818.409 3382.09 820.831 3377.61 820.416H3377.64Z" fill="#EE5A50"/>
<path d="M3725.14 828.233C3725.14 836.812 3724.93 845.413 3725.21 853.992C3725.37 858.789 3723.22 861.371 3718.91 859.941C3712.27 857.751 3703 866.007 3698.57 854.707C3697.74 852.585 3695.85 854.983 3694.74 855.791C3687.18 861.371 3678.6 862.893 3669.45 862.409C3656.14 861.717 3646.15 854.591 3643.32 843.569C3639.93 830.424 3644.49 817.602 3655.4 810.546C3665.83 803.812 3677.54 802.682 3689.62 803.028C3692.69 803.12 3697.79 805.818 3698.39 800.353C3698.87 795.787 3695.16 792.19 3690.78 791.06C3681.62 788.684 3672.03 788.5 3663.75 793.204C3652.36 799.684 3652.08 788.615 3648.65 784.026C3643.83 777.592 3651.34 776.439 3654.76 774.779C3668.25 768.207 3682.73 766.938 3697.28 769.613C3713.47 772.588 3723.43 784.349 3724.68 801.506C3725.32 810.361 3724.79 819.332 3724.79 828.233C3724.91 828.233 3725.02 828.233 3725.11 828.233H3725.14ZM3689.32 820.416C3674.96 820.37 3669.17 823.875 3668.96 832.407C3668.75 840.755 3674.1 843.153 3681.02 843.43C3691.47 843.845 3698.8 836.558 3699.1 826.827C3699.38 818.202 3693.31 820.969 3689.3 820.416H3689.32Z" fill="#EE5A50"/>
<path d="M4403.6 827.727C4403.6 836.306 4403.35 844.908 4403.69 853.486C4403.9 858.767 4401.71 861.442 4396.87 859.92C4390.27 857.868 4380.73 866.146 4376.76 854.247C4376.39 853.14 4374.01 855.146 4372.79 856.046C4365.48 861.35 4357.23 862.826 4348.39 862.41C4335 861.811 4324.9 854.916 4321.88 844.031C4318.05 830.241 4323.12 816.889 4335.13 809.763C4345.47 803.629 4356.86 802.568 4368.6 803.076C4371.48 803.191 4376.04 805.497 4376.87 800.793C4377.64 796.596 4374.45 793.021 4370.6 791.638C4361.22 788.294 4351.25 788.271 4342.7 793.067C4330.82 799.732 4330.04 788.617 4326.95 783.566C4322.61 776.487 4331.03 775.887 4334.6 774.204C4347.5 768.07 4361.4 767.078 4375.28 769.476C4391.54 772.29 4401.73 783.935 4403.12 801C4403.83 809.855 4403.23 818.803 4403.23 827.727H4403.6ZM4367.1 820.417C4353.38 820.463 4347.7 823.969 4347.47 832.247C4347.22 841.218 4353.05 843.432 4360.34 843.432C4370.44 843.432 4377.24 836.398 4377.59 827.013C4377.94 817.558 4371.06 821.317 4367.1 820.44V820.417Z" fill="#EE5A50"/>
<path d="M3294.94 258.178C3294.76 281.63 3276.84 299.318 3253.3 299.249C3229.82 299.202 3210.86 280.201 3211.3 257.117C3211.74 234.264 3230.56 215.7 3253.34 215.631C3276.47 215.562 3295.1 234.61 3294.92 258.155L3294.94 258.178Z" fill="#EE5A50"/>
<path d="M3541.16 814.629C3541.16 810.34 3540.84 806.028 3541.23 801.761C3541.81 795.374 3540.33 791.73 3532.83 792.56C3524.03 793.529 3526.82 786.518 3526.95 782.367C3527.09 778.009 3523.52 770.491 3533 771.206C3539.64 771.713 3541.27 769.038 3541.3 762.72C3541.37 743.626 3541.62 743.833 3561.43 744.548C3566.53 744.733 3568.81 746.162 3568.14 751.351C3567.98 752.642 3568.12 753.98 3568.14 755.294C3568.19 770.676 3568.21 771.298 3583.52 770.86C3593.62 770.584 3591.41 776.856 3591.64 782.46C3591.89 788.34 3592.31 793.137 3583.41 792.837C3568.16 792.306 3568.14 792.929 3568.14 808.426C3568.14 814.698 3567.96 820.971 3568.21 827.22C3568.72 839.373 3574.6 844.077 3585.6 839.558C3597.34 834.761 3597.13 845.599 3600.43 850.327C3604.41 856.046 3596.94 857.014 3593.88 858.559C3565.9 872.834 3541.48 857.845 3541.18 826.459C3541.14 822.493 3541.18 818.549 3541.18 814.583L3541.16 814.629Z" fill="#EE5A50"/>
<path d="M3744.65 796.55C3744.65 778.401 3744.97 760.252 3744.48 742.104C3744.3 735.393 3746.61 733.802 3752.9 733.802C3772.13 733.733 3772.13 733.479 3772.13 753.15C3772.13 785.48 3771.95 817.811 3772.27 850.142C3772.34 857.475 3771.03 860.566 3762.7 860.312C3744.67 859.735 3744.65 860.243 3744.65 842.094C3744.65 826.92 3744.65 811.746 3744.65 796.573V796.55Z" fill="#EE5A50"/>
<path d="M4040.4 815.344C4040.4 827.842 4040.26 840.364 4040.47 852.863C4040.54 857.429 4039.06 859.043 4034.31 859.366C4012.98 860.865 4013 861.027 4013 840.18C4013 819.771 4013.23 799.363 4012.86 778.954C4012.75 772.474 4014.73 770.606 4021.26 770.629C4040.4 770.698 4040.4 770.399 4040.4 789.654C4040.4 798.21 4040.4 806.765 4040.4 815.32V815.344Z" fill="#EE5A50"/>
<path d="M3823.97 820.416C3818.37 820.416 3812.79 820.485 3807.19 820.416C3792.2 820.162 3794.32 822.538 3794.32 807.272C3794.32 792.49 3792.2 794.473 3807.49 794.335C3820.33 794.219 3833.18 794.519 3846 794.219C3851.53 794.104 3854.16 795.119 3854.25 801.645C3854.53 820.439 3854.85 820.439 3835.81 820.439H3823.95L3823.97 820.416Z" fill="#EE5A50"/>
<path d="M4577.02 830.01C4587.04 830.01 4592.05 835.429 4592.05 846.267C4592.05 855.492 4586.27 860.104 4574.71 860.104C4561.64 860.104 4561.54 860.104 4561.68 842.97C4561.82 827.865 4559.54 830.287 4577.02 830.033V830.01Z" fill="#EE5A50"/>
<path d="M4026.31 758.938C4022.32 757.993 4014.96 761.498 4013.33 757.162C4011.07 751.121 4012.49 743.649 4012.56 736.8C4012.56 734.886 4014.27 734.102 4016.02 734.079C4023.22 734.033 4030.44 734.01 4037.63 734.079C4040.44 734.125 4041.64 735.877 4041.64 738.599C4041.64 740.559 4041.74 742.519 4041.69 744.502C4041.44 761.544 4043.72 758.592 4026.31 758.938Z" fill="#EE5A50"/>
<path d="M4854.67 535.804C4855.45 535.112 4856.28 534.72 4857 535.804C4857.07 535.919 4856.28 536.611 4855.89 537.026C4855.47 536.634 4855.06 536.219 4854.67 535.804Z" fill="white"/>
<line x1="2969" y1="46" x2="2969" y2="882" stroke="white" stroke-width="20"/>
</svg>
