<svg width="29" height="30" viewBox="0 0 29 30" fill="none" xmlns="http://www.w3.org/2000/svg">
<path d="M3.19043 15C3.19043 9.66864 3.19043 7.00296 4.84667 5.34671C6.50292 3.69048 9.1686 3.69048 14.5 3.69048C19.8313 3.69048 22.497 3.69048 24.1533 5.34671C25.8095 7.00296 25.8095 9.66864 25.8095 15C25.8095 20.3313 25.8095 22.997 24.1533 24.6533C22.497 26.3095 19.8313 26.3095 14.5 26.3095C9.1686 26.3095 6.50292 26.3095 4.84667 24.6533C3.19043 22.997 3.19043 20.3313 3.19043 15Z" stroke="#EC5C52" stroke-width="1.78571" stroke-linejoin="round"/>
<path d="M19.8574 15C19.8574 17.9587 17.4589 20.3571 14.5002 20.3571C11.5415 20.3571 9.14307 17.9587 9.14307 15C9.14307 12.0413 11.5415 9.64285 14.5002 9.64285C17.4589 9.64285 19.8574 12.0413 19.8574 15Z" stroke="#EC5C52" stroke-width="1.78571"/>
<path d="M21.0567 8.45238H21.0464" stroke="#EC5C52" stroke-width="2.38095" stroke-linecap="round" stroke-linejoin="round"/>
</svg>
