<svg width="25" height="24" viewBox="0 0 25 24" fill="none" xmlns="http://www.w3.org/2000/svg">
<path d="M13 3H12C11.4477 3 11 3.44772 11 4V5C11 5.55228 11.4477 6 12 6H13C13.5523 6 14 5.55228 14 5V4C14 3.44772 13.5523 3 13 3Z" fill="#25262C" stroke="#25262C" stroke-width="1.5"/>
<path d="M13 10.5H12C11.4477 10.5 11 10.9477 11 11.5V12.5C11 13.0523 11.4477 13.5 12 13.5H13C13.5523 13.5 14 13.0523 14 12.5V11.5C14 10.9477 13.5523 10.5 13 10.5Z" fill="#25262C" stroke="#25262C" stroke-width="1.5"/>
<path d="M13 18H12C11.4477 18 11 18.4477 11 19V20C11 20.5523 11.4477 21 12 21H13C13.5523 21 14 20.5523 14 20V19C14 18.4477 13.5523 18 13 18Z" fill="#25262C" stroke="#25262C" stroke-width="1.5"/>
</svg>
