<svg width="55" height="54" viewBox="0 0 55 54" fill="none" xmlns="http://www.w3.org/2000/svg">
<path d="M38.776 15.6041V24.5208C38.776 30.6764 33.7858 35.6666 27.6302 35.6666C21.4745 35.6666 16.4844 30.6764 16.4844 24.5208V15.6041C16.4844 9.44842 21.4745 4.45825 27.6302 4.45825C33.7858 4.45825 38.776 9.44842 38.776 15.6041Z" stroke="white" stroke-width="3.34375"/>
<path d="M38.7764 15.6042H32.0889M38.7764 24.5209H32.0889" stroke="white" stroke-width="3.34375" stroke-linecap="round"/>
<path d="M45.4635 24.5208C45.4635 34.3699 37.4793 42.3541 27.6302 42.3541M27.6302 42.3541C17.7811 42.3541 9.79688 34.3699 9.79688 24.5208M27.6302 42.3541V49.0416M27.6302 49.0416H34.3177M27.6302 49.0416H20.9427" stroke="white" stroke-width="3.34375" stroke-linecap="round"/>
</svg>
