<svg width="55" height="54" viewBox="0 0 55 54" fill="none" xmlns="http://www.w3.org/2000/svg">
<path d="M38.776 15.6042V24.5208C38.776 30.6764 33.7858 35.6667 27.6302 35.6667C21.4745 35.6667 16.4844 30.6764 16.4844 24.5208V15.6042C16.4844 9.4485 21.4745 4.45833 27.6302 4.45833C33.7858 4.45833 38.776 9.4485 38.776 15.6042Z" stroke="#EC5C52" stroke-width="3.34375"/>
<path d="M38.7764 15.6042H32.0889M38.7764 24.5208H32.0889" stroke="#EC5C52" stroke-width="3.34375" stroke-linecap="round"/>
<path d="M45.4635 24.5208C45.4635 34.37 37.4793 42.3542 27.6302 42.3542M27.6302 42.3542C17.7811 42.3542 9.79688 34.37 9.79688 24.5208M27.6302 42.3542V49.0417M27.6302 49.0417H34.3177M27.6302 49.0417H20.9427" stroke="#202956" stroke-width="3.34375" stroke-linecap="round"/>
</svg>
