<svg width="55" height="54" viewBox="0 0 55 54" fill="none" xmlns="http://www.w3.org/2000/svg">
<path d="M24.1562 18.1803H41.9896M24.1562 27.097H29.7292M41.9896 27.097H36.4167M24.1562 36.0136H29.7292M41.9896 36.0136H36.4167" stroke="#202956" stroke-width="3.34375" stroke-linecap="round" stroke-linejoin="round"/>
<path d="M16.3543 17.0657H14.1252C9.9218 17.0657 7.82012 17.0657 6.51432 18.3715C5.2085 19.6773 5.2085 21.779 5.2085 25.9824V40.472C5.2085 43.5498 7.70358 46.0449 10.7814 46.0449C13.8592 46.0449 16.3543 43.5498 16.3543 40.472V17.0657Z" stroke="#EC5C52" stroke-width="3.34375" stroke-linecap="round" stroke-linejoin="round"/>
<path d="M36.4167 8.14905H25.2708C23.1977 8.14905 22.1612 8.14905 21.3108 8.37691C19.003 8.99528 17.2004 10.7979 16.582 13.1057C16.3542 13.9561 16.3542 14.9927 16.3542 17.0657V40.472C16.3542 43.5498 13.8591 46.0449 10.7812 46.0449H36.4167C42.7216 46.0449 45.8741 46.0449 47.8329 44.0861C49.7917 42.1273 49.7917 38.9749 49.7917 32.6699V21.524C49.7917 15.219 49.7917 12.0665 47.8329 10.1078C45.8741 8.14905 42.7216 8.14905 36.4167 8.14905Z" stroke="#EC5C52" stroke-width="3.34375" stroke-linecap="round" stroke-linejoin="round"/>
</svg>
