<svg width="54" height="54" viewBox="0 0 54 54" fill="none" xmlns="http://www.w3.org/2000/svg">
<path d="M23.4062 17.8333H41.2396M23.4062 26.7499H28.9792M41.2396 26.7499H35.6667M23.4062 35.6666H28.9792M41.2396 35.6666H35.6667" stroke="white" stroke-width="3.34375" stroke-linecap="round" stroke-linejoin="round"/>
<path d="M15.6043 16.7188H13.3752C9.1718 16.7188 7.07012 16.7187 5.76432 18.0246C4.4585 19.3304 4.4585 21.4321 4.4585 25.6354V40.125C4.4585 43.2028 6.95358 45.6979 10.0314 45.6979C13.1092 45.6979 15.6043 43.2028 15.6043 40.125V16.7188Z" stroke="white" stroke-width="3.34375" stroke-linecap="round" stroke-linejoin="round"/>
<path d="M35.6667 7.802H24.5208C22.4477 7.802 21.4112 7.802 20.5608 8.02987C18.253 8.64824 16.4504 10.4509 15.832 12.7586C15.6042 13.6091 15.6042 14.6456 15.6042 16.7187V40.1249C15.6042 43.2027 13.1091 45.6978 10.0312 45.6978H35.6667C41.9716 45.6978 45.1241 45.6978 47.0829 43.7391C49.0417 41.7803 49.0417 38.6278 49.0417 32.3228V21.177C49.0417 14.872 49.0417 11.7195 47.0829 9.76073C45.1241 7.802 41.9716 7.802 35.6667 7.802Z" stroke="white" stroke-width="3.34375" stroke-linecap="round" stroke-linejoin="round"/>
</svg>
