<svg width="62" height="63" viewBox="0 0 62 63" fill="none" xmlns="http://www.w3.org/2000/svg">
<rect x="0.225098" y="0.925293" width="61.55" height="61.55" rx="30.775" fill="#FDE5E3"/>
<path d="M21.6218 25.001L19.9888 26.0896C18.8182 26.87 18.2329 27.2602 17.9157 27.8553C17.5985 28.4504 17.6008 29.1498 17.6055 30.5486C17.6112 32.2326 17.6269 33.9485 17.6702 35.6848C17.773 39.8042 17.8244 41.8639 19.339 43.3784C20.8535 44.8931 22.941 44.9452 27.116 45.0495C29.7134 45.1144 32.2877 45.1144 34.8849 45.0495C39.0601 44.9452 41.1475 44.8931 42.662 43.3784C44.1766 41.8639 44.228 39.8042 44.3308 35.6848C44.3742 33.9485 44.3897 32.2326 44.3955 30.5486C44.4002 29.1498 44.4024 28.4504 44.0853 27.8553C43.768 27.2602 43.1828 26.87 42.0121 26.0896L40.3791 25.001" stroke="#EC5C52" stroke-width="2.00972" stroke-linejoin="round"/>
<path d="M17.6021 29.0205L26.8642 34.5778C28.8793 35.7868 29.8868 36.3914 31.0002 36.3914C32.1136 36.3914 33.1211 35.7868 35.1362 34.5778L44.3983 29.0205" stroke="#EC5C52" stroke-width="2.00972" stroke-linejoin="round"/>
<path d="M21.6216 31.7004V23.6615C21.6216 21.1351 21.6216 19.8719 22.4064 19.0871C23.1913 18.3022 24.4545 18.3022 26.9808 18.3022H35.0197C37.5461 18.3022 38.8093 18.3022 39.5941 19.0871C40.379 19.8719 40.379 21.1351 40.379 23.6615V31.7004" stroke="#EC5C52" stroke-width="2.00972"/>
<path d="M28.3203 29.0209H33.6796M28.3203 23.6616H33.6796" stroke="#EC5C52" stroke-width="2.00972" stroke-linecap="round" stroke-linejoin="round"/>
</svg>
