<svg width="24" height="25" viewBox="0 0 24 25" fill="none" xmlns="http://www.w3.org/2000/svg">
<path d="M10 14.1L7.5 16.6" stroke="#717686" stroke-width="1.5" stroke-linejoin="round"/>
<path d="M7.56672 18.6252C8.14443 18.0475 8.14443 17.1109 7.56672 16.5333C6.98912 15.9556 6.05253 15.9556 5.47483 16.5333L2.43332 19.5748C1.85562 20.1525 1.85562 21.0891 2.43332 21.6667C3.01092 22.2444 3.94752 22.2444 4.52522 21.6667L7.56672 18.6252Z" stroke="#717686" stroke-width="1.5" stroke-linecap="round"/>
<path d="M8 9.09998C8 5.23399 11.134 2.09998 15 2.09998C18.866 2.09998 22 5.23399 22 9.09998C22 12.966 18.866 16.1 15 16.1C11.134 16.1 8 12.966 8 9.09998Z" stroke="#717686" stroke-width="1.5" stroke-linejoin="round"/>
</svg>
