<svg width="24" height="25" viewBox="0 0 24 25" fill="none" xmlns="http://www.w3.org/2000/svg">
<g id="search-02" opacity="0.5">
<path id="Vector" d="M10 14.5L7.5 17" stroke="white" stroke-width="1.5" stroke-linejoin="round"/>
<path id="Vector_2" d="M7.56672 19.0252C8.14443 18.4475 8.14443 17.5109 7.56672 16.9333C6.98912 16.3556 6.05253 16.3556 5.47483 16.9333L2.43332 19.9748C1.85562 20.5525 1.85562 21.4891 2.43332 22.0667C3.01092 22.6444 3.94752 22.6444 4.52522 22.0667L7.56672 19.0252Z" stroke="white" stroke-width="1.5" stroke-linecap="round"/>
<path id="Vector_3" d="M8 9.5C8 5.63401 11.134 2.5 15 2.5C18.866 2.5 22 5.63401 22 9.5C22 13.366 18.866 16.5 15 16.5C11.134 16.5 8 13.366 8 9.5Z" stroke="white" stroke-width="1.5" stroke-linejoin="round"/>
</g>
</svg>
