<svg width="100" height="100" viewBox="0 0 100 100" fill="none" xmlns="http://www.w3.org/2000/svg">
<g clip-path="url(#clip0_4620_3111)">
<path d="M50 100C77.6142 100 100 77.6142 100 50C100 22.3858 77.6142 0 50 0C22.3858 0 0 22.3858 0 50C0 77.6142 22.3858 100 50 100Z" fill="#32BEA6"/>
<path d="M37.2241 72.5552L62.9339 98.265C84.2273 92.5868 100 73.1861 100 50V48.5804L79.8109 29.9685L37.2241 72.5552Z" fill="#2BA893"/>
<path d="M51.2621 61.1987C53.4703 63.4069 53.4703 67.1924 51.2621 69.4006L46.6879 73.9748C44.4797 76.183 40.6942 76.183 38.486 73.9748L18.4545 53.7855C16.2463 51.5773 16.2463 47.7918 18.4545 45.5836L23.0286 41.0095C25.2368 38.8013 29.0223 38.8013 31.2305 41.0095L51.2621 61.1987Z" fill="white"/>
<path d="M68.7695 26.3407C70.9777 24.1325 74.7632 24.1325 76.9714 26.3407L81.5456 30.9148C83.7538 33.123 83.7538 36.9085 81.5456 39.1167L46.8453 73.6593C44.6371 75.8675 40.8516 75.8675 38.6434 73.6593L34.0692 69.0852C31.861 66.877 31.861 63.0915 34.0692 60.8833L68.7695 26.3407Z" fill="white"/>
</g>
<defs>
<clipPath id="clip0_4620_3111">
<rect width="100" height="100" fill="white"/>
</clipPath>
</defs>
</svg>
