<svg width="55" height="54" viewBox="0 0 55 54" fill="none" xmlns="http://www.w3.org/2000/svg">
<path d="M47.1891 40.125C48.8594 40.125 50.188 39.074 51.381 37.604C53.8229 34.5953 49.8135 32.1909 48.2845 31.0135C46.7299 29.8164 44.9942 29.1383 43.2345 28.9792M41.0054 24.5208C44.0832 24.5208 46.5783 22.0257 46.5783 18.9479C46.5783 15.8701 44.0832 13.375 41.0054 13.375" stroke="#202956" stroke-width="3.34375" stroke-linecap="round"/>
<path d="M8.07141 40.125C6.40109 40.125 5.07253 39.074 3.87966 37.604C1.43769 34.5953 5.44703 32.1909 6.97619 31.0135C8.53064 29.8164 10.2663 29.1383 12.026 28.9792M13.1406 24.5208C10.0628 24.5208 7.5677 22.0257 7.5677 18.9479C7.5677 15.8701 10.0628 13.375 13.1406 13.375" stroke="#202956" stroke-width="3.34375" stroke-linecap="round"/>
<path d="M18.9003 33.6854C16.6226 35.0938 10.6506 37.9696 14.288 41.5682C16.0648 43.3261 18.0437 44.5833 20.5317 44.5833H34.7288C37.2167 44.5833 39.1956 43.3261 40.9724 41.5682C44.6098 37.9696 38.6378 35.0938 36.3601 33.6854C31.0188 30.3827 24.2416 30.3827 18.9003 33.6854Z" stroke="#EC5C52" stroke-width="3.34375" stroke-linecap="round" stroke-linejoin="round"/>
<path d="M35.4323 16.7188C35.4323 21.0277 31.9392 24.5208 27.6302 24.5208C23.3212 24.5208 19.8281 21.0277 19.8281 16.7188C19.8281 12.4098 23.3212 8.91667 27.6302 8.91667C31.9392 8.91667 35.4323 12.4098 35.4323 16.7188Z" stroke="#EC5C52" stroke-width="3.34375"/>
</svg>
