<svg width="54" height="54" viewBox="0 0 54 54" fill="none" xmlns="http://www.w3.org/2000/svg">
<path d="M46.3087 40.125C47.979 40.125 49.3076 39.074 50.5007 37.604C52.9425 34.5953 48.9331 32.1909 47.4041 31.0135C45.8495 29.8164 44.1139 29.1383 42.3542 28.9792M40.125 24.5208C43.2028 24.5208 45.6979 22.0257 45.6979 18.9479C45.6979 15.8701 43.2028 13.375 40.125 13.375" stroke="white" stroke-width="3.34375" stroke-linecap="round"/>
<path d="M7.19104 40.125C5.52072 40.125 4.19216 39.074 2.99929 37.604C0.557322 34.5953 4.56666 32.1909 6.09582 31.0135C7.65027 29.8164 9.38592 29.1383 11.1457 28.9792M12.2603 24.5208C9.18242 24.5208 6.68733 22.0257 6.68733 18.9479C6.68733 15.8701 9.18242 13.375 12.2603 13.375" stroke="white" stroke-width="3.34375" stroke-linecap="round"/>
<path d="M18.02 33.6853C15.7423 35.0937 9.77025 37.9695 13.4076 41.5681C15.1844 43.326 17.1633 44.5833 19.6513 44.5833H33.8484C36.3364 44.5833 38.3152 43.326 40.0921 41.5681C43.7294 37.9695 37.7575 35.0937 35.4797 33.6853C30.1384 30.3826 23.3613 30.3826 18.02 33.6853Z" stroke="white" stroke-width="3.34375" stroke-linecap="round" stroke-linejoin="round"/>
<path d="M34.5519 16.7188C34.5519 21.0278 31.0588 24.5209 26.7498 24.5209C22.4409 24.5209 18.9478 21.0278 18.9478 16.7188C18.9478 12.4099 22.4409 8.91675 26.7498 8.91675C31.0588 8.91675 34.5519 12.4099 34.5519 16.7188Z" stroke="white" stroke-width="3.34375"/>
</svg>
