<svg width="48" height="48" viewBox="0 0 48 48" fill="none" xmlns="http://www.w3.org/2000/svg">
<path d="M24 43.9994C35.0457 43.9994 44 35.0451 44 23.9994C44 12.9538 35.0457 3.99945 24 3.99945C12.9543 3.99945 4 12.9538 4 23.9994C4 35.0451 12.9543 43.9994 24 43.9994Z" fill="#EEEEF0" stroke="#EEEEF0" stroke-width="3"/>
<path d="M15 34.0005C19.6634 29.1161 28.2864 28.8861 33 34.0005M28.9902 19.0005C28.9902 21.7619 26.7484 24.0005 23.983 24.0005C21.2178 24.0005 18.9759 21.7619 18.9759 19.0005C18.9759 16.2391 21.2178 14.0005 23.983 14.0005C26.7484 14.0005 28.9902 16.2391 28.9902 19.0005Z" stroke="#8F95A1" stroke-width="2.4" stroke-linecap="round"/>
</svg>
