<svg width="29" height="30" viewBox="0 0 29 30" fill="none" xmlns="http://www.w3.org/2000/svg">
<path d="M14.5005 25.119C16.6549 25.119 18.7208 24.9062 20.6355 24.516C23.027 24.0285 24.2228 23.7846 25.314 22.3817C26.4052 20.9787 26.4052 19.3682 26.4052 16.147V13.853C26.4052 10.6318 26.4052 9.02127 25.314 7.6183C24.2228 6.21533 23.027 5.97158 20.6355 5.48407C18.7208 5.09377 16.6549 4.88095 14.5005 4.88095C12.3461 4.88095 10.2801 5.09377 8.36542 5.48407C5.97387 5.97158 4.7781 6.21533 3.68689 7.6183C2.5957 9.02127 2.5957 10.6318 2.5957 13.853V16.147C2.5957 19.3682 2.5957 20.9787 3.68689 22.3817C4.7781 23.7846 5.97387 24.0285 8.36542 24.516C10.2801 24.9062 12.3461 25.119 14.5005 25.119Z" stroke="#EC5C52" stroke-width="1.78571"/>
<path d="M19.2169 15.3725C19.0403 16.0937 18.1003 16.6117 16.2203 17.6477C14.1754 18.7744 13.153 19.3378 12.3249 19.1208C12.0444 19.0473 11.7861 18.918 11.5692 18.7426C10.9287 18.2249 10.9287 17.1499 10.9287 15C10.9287 12.8501 10.9287 11.7751 11.5692 11.2573C11.7861 11.082 12.0444 10.9527 12.3249 10.8792C13.153 10.6621 14.1754 11.2255 16.2203 12.3523C18.1003 13.3883 19.0403 13.9063 19.2169 14.6275C19.277 14.873 19.277 15.127 19.2169 15.3725Z" stroke="#EC5C52" stroke-width="1.78571" stroke-linejoin="round"/>
</svg>
