<svg width="26" height="25" viewBox="0 0 26 25" fill="none" xmlns="http://www.w3.org/2000/svg">
<path d="M7.6022 7.8219H6.56262C4.60236 7.8219 3.62224 7.8219 3.01327 8.43087C2.4043 9.03984 2.4043 10.02 2.4043 11.9802V18.7375C2.4043 20.1728 3.56789 21.3364 5.00325 21.3364C6.43861 21.3364 7.6022 20.1728 7.6022 18.7375V7.8219Z" fill="#B6BAC3" stroke="#717686" stroke-width="1.55937" stroke-linecap="round" stroke-linejoin="round"/>
<path d="M16.9586 3.66357H11.7607C10.7939 3.66357 10.3105 3.66357 9.91392 3.76984C8.83767 4.05822 7.99701 4.89888 7.70863 5.97512C7.60237 6.37172 7.60237 6.85512 7.60237 7.82189V18.7375C7.60237 20.1728 6.43878 21.3364 5.00342 21.3364H16.9586C19.8989 21.3364 21.3691 21.3364 22.2826 20.423C23.1961 19.5095 23.1961 18.0393 23.1961 15.099V9.90105C23.1961 6.96068 23.1961 5.49049 22.2826 4.57703C21.3691 3.66357 19.8989 3.66357 16.9586 3.66357Z" fill="#B6BAC3" stroke="#717686" stroke-width="1.55937" stroke-linecap="round" stroke-linejoin="round"/>
<path d="M11.2407 8.34167H19.5574M11.2407 12.5H13.8397M19.5574 12.5H16.9584M11.2407 16.6583H13.8397M19.5574 16.6583H16.9584" stroke="#717686" stroke-width="1.55937" stroke-linecap="round" stroke-linejoin="round"/>
</svg>
