<svg width="25" height="25" viewBox="0 0 25 25" fill="none" xmlns="http://www.w3.org/2000/svg">
<path d="M6.24236 3.44048C9.71579 4.10182 11.786 5.4852 12.5 6.2794C13.2141 5.4852 15.2843 4.10182 18.7577 3.44048C20.5174 3.10543 21.3972 2.93791 22.1465 3.57999C22.8958 4.22207 22.8959 5.26471 22.8959 7.35001V14.8442C22.8959 16.7509 22.8958 17.7042 22.4149 18.2995C21.934 18.8946 20.8753 19.0962 18.7577 19.4995C16.8701 19.8588 15.3969 20.4314 14.3305 21.0069C13.2814 21.5731 12.7568 21.8562 12.5 21.8562C12.2433 21.8562 11.7187 21.5731 10.6696 21.0069C9.6032 20.4314 8.13 19.8588 6.24236 19.4995C4.12483 19.0962 3.06607 18.8946 2.58516 18.2995C2.10425 17.7042 2.10425 16.7509 2.10425 14.8442V7.35001C2.10425 5.26471 2.10425 4.22207 2.85356 3.57999C3.60288 2.93791 4.4827 3.10543 6.24236 3.44048Z" fill="#C5D9F8" stroke="#202956" stroke-width="1.55937" stroke-linecap="round" stroke-linejoin="round"/>
<path d="M12.5001 6.26251V20.8166V6.26251Z" fill="#C5D9F8"/>
<path d="M12.5001 6.26251V20.8166" stroke="#202956" stroke-width="1.55937" stroke-linecap="round" stroke-linejoin="round"/>
</svg>
