<svg width="25" height="25" viewBox="0 0 25 25" fill="none" xmlns="http://www.w3.org/2000/svg">
<path d="M6.24211 3.44054C9.71555 4.10188 11.7857 5.48526 12.4998 6.27947C13.2139 5.48526 15.284 4.10188 18.7575 3.44054C20.5172 3.10549 21.3969 2.93797 22.1463 3.58005C22.8956 4.22213 22.8956 5.26477 22.8956 7.35007V14.8443C22.8956 16.751 22.8956 17.7043 22.4147 18.2995C21.9338 18.8947 20.8751 19.0963 18.7575 19.4995C16.8699 19.8589 15.3967 20.4315 14.3303 21.007C13.2812 21.5732 12.7566 21.8562 12.4998 21.8562C12.243 21.8562 11.7185 21.5732 10.6693 21.007C9.60295 20.4315 8.12975 19.8589 6.24211 19.4995C4.12458 19.0963 3.06582 18.8947 2.58491 18.2995C2.104 17.7043 2.104 16.751 2.104 14.8443V7.35007C2.104 5.26477 2.104 4.22213 2.85331 3.58005C3.60263 2.93797 4.48246 3.10549 6.24211 3.44054Z" fill="#B6BAC3" stroke="#717686" stroke-width="1.55937" stroke-linecap="round" stroke-linejoin="round"/>
<path d="M12.5 6.2627V20.8168" stroke="#717686" stroke-width="1.55937" stroke-linecap="round"/>
</svg>
