<svg width="26" height="25" viewBox="0 0 26 25" fill="none" xmlns="http://www.w3.org/2000/svg">
<path d="M2.50439 11.4604C2.50439 8.02997 2.50439 6.31475 3.5701 5.24905C4.63579 4.18335 6.35102 4.18335 9.78145 4.18335H10.821C14.2514 4.18335 15.9666 4.18335 17.0324 5.24905C18.0981 6.31475 18.0981 8.02997 18.0981 11.4604V13.5396C18.0981 16.97 18.0981 18.6852 17.0324 19.751C15.9666 20.8166 14.2514 20.8166 10.821 20.8166H9.78145C6.35102 20.8166 4.63579 20.8166 3.5701 19.751C2.50439 18.6852 2.50439 16.97 2.50439 13.5396V11.4604Z" fill="#B6BAC3" stroke="#717686" stroke-width="1.55937"/>
<path d="M18.0981 9.28355L18.229 9.17554C20.4286 7.36072 21.5283 6.4533 22.4122 6.89144C23.296 7.32958 23.296 8.78216 23.296 11.6873V13.313C23.296 16.2182 23.296 17.6707 22.4122 18.1089C21.5283 18.547 20.4286 17.6396 18.229 15.8247L18.0981 15.7167" fill="#B6BAC3"/>
<path d="M18.0981 9.28355L18.229 9.17554C20.4286 7.36072 21.5283 6.4533 22.4122 6.89144C23.296 7.32958 23.296 8.78216 23.296 11.6873V13.313C23.296 16.2182 23.296 17.6707 22.4122 18.1089C21.5283 18.547 20.4286 17.6396 18.229 15.8247L18.0981 15.7167" stroke="#717686" stroke-width="1.55937" stroke-linecap="round"/>
<path d="M12.3807 11.4605C13.2419 11.4605 13.94 10.7624 13.94 9.90117C13.94 9.03995 13.2419 8.3418 12.3807 8.3418C11.5194 8.3418 10.8213 9.03995 10.8213 9.90117C10.8213 10.7624 11.5194 11.4605 12.3807 11.4605Z" stroke="#717686" stroke-width="1.55937"/>
</svg>
