<svg width="26" height="25" viewBox="0 0 26 25" fill="none" xmlns="http://www.w3.org/2000/svg">
<path d="M18.5981 9.28336L18.729 9.17536C20.9286 7.36054 22.0283 6.45312 22.9122 6.89126C23.796 7.3294 23.796 8.78197 23.796 11.6871V13.3128C23.796 16.218 23.796 17.6705 22.9122 18.1087C22.0283 18.5468 20.9286 17.6395 18.729 15.8246L18.5981 15.7165" fill="#C5D9F8"/>
<path d="M18.5981 9.28336L18.729 9.17536C20.9286 7.36054 22.0283 6.45312 22.9122 6.89126C23.796 7.3294 23.796 8.78197 23.796 11.6871V13.3128C23.796 16.218 23.796 17.6705 22.9122 18.1087C22.0283 18.5468 20.9286 17.6395 18.729 15.8246L18.5981 15.7165" stroke="#202956" stroke-width="1.55937" stroke-linecap="round" stroke-linejoin="round"/>
<path d="M3.00439 11.4604C3.00439 8.02997 3.00439 6.31475 4.0701 5.24905C5.13579 4.18335 6.85102 4.18335 10.2815 4.18335H11.321C14.7514 4.18335 16.4666 4.18335 17.5324 5.24905C18.5981 6.31475 18.5981 8.02997 18.5981 11.4604V13.5396C18.5981 16.97 18.5981 18.6852 17.5324 19.751C16.4666 20.8166 14.7514 20.8166 11.321 20.8166H10.2815C6.85102 20.8166 5.13579 20.8166 4.0701 19.751C3.00439 18.6852 3.00439 16.97 3.00439 13.5396V11.4604Z" fill="#C5D9F8" stroke="#202956" stroke-width="1.55937" stroke-linecap="round" stroke-linejoin="round"/>
<path d="M12.8804 11.4604C13.7416 11.4604 14.4398 10.7623 14.4398 9.90104C14.4398 9.03983 13.7416 8.34167 12.8804 8.34167C12.0192 8.34167 11.321 9.03983 11.321 9.90104C11.321 10.7623 12.0192 11.4604 12.8804 11.4604Z" fill="#C5D9F8" stroke="#202956" stroke-width="1.55937" stroke-linecap="round" stroke-linejoin="round"/>
</svg>
